<svg xmlns="http://www.w3.org/2000/svg" version="1.1" width="600px" height="600px" viewBox="0 0 200 200" style="overflow:hidden!important;"><g id="svga-group-wrapper"><g id="svga-group-backs-single"></g><g id="svga-group-humanwrap-move" transform="matrix(1,0,0,1,0,0)"><g id="svga-group-humanwrap"><g id="svga-group-hair-back-move" transform="matrix(1,0,0,1,0,0)"><g id="svga-group-hair-back"></g></g><g id="svga-group-humanbody-back"><path id="SvgjsPath3770" d="M77.6 118.3c0 19.3 3.4 44.1-10 51.9-13.4 7.9-31.9 11.3-37.8 22s-4.4 25.3-4.4 25.3h149.3s.7-18.9-5.1-26.4c-8.1-10.4-27.8-15.5-37.7-20.9s-13.4-25.1-13.4-52.4l-40.9.5z" fill="#ffffff" stroke-width="none" opacity="1"></path></g><g id="svga-group-chinshadow-single"></g><g id="svga-group-humanbody-front"><path id="SvgjsPath3771" d="M175.8 218.7H24.4l-.1-1c-.1-.6-1.5-15.1 4.5-26 4.1-7.4 13.5-11.3 23.5-15.5 5-2.1 10.2-4.3 14.8-6.9 10.6-6.2 10.1-23.9 9.6-41-.1-3.5-.2-6.8-.2-10v-1.1l43.2-.4v1.1c0 29.9 4.2 46.7 12.8 51.4 2.9 1.6 6.7 3.2 10.8 4.9 10 4.1 21.3 8.8 27.2 16.3 6.1 7.7 5.4 26.4 5.4 27.1l-.1 1.1zm-149.3-2.2h147.1c0-4.1-.2-18.5-4.9-24.6-5.5-7-16.6-11.6-26.3-15.6-4.1-1.7-8-3.3-11-5-5.1-2.8-8.7-8.9-10.9-18.7-2-8.4-2.9-19.4-3-33.5l-38.6.4c0 2.8.1 5.7.2 8.8.5 17.8 1 36.1-10.7 43-4.7 2.7-9.9 4.9-15 7.1-9.6 4-18.7 7.8-22.4 14.5-5 8.6-4.7 20.1-4.5 23.6z" fill="#000000" stroke-width="none" opacity="1"></path><path id="SvgjsPath3772" d="M93.9 153.8c-.5 1.8-.4 3.4.5 5.2.8 1.6 2.1 2.7 3.9 2.9.4 0 .7-.5.5-.8-1.6-2.2-3.5-4.2-3.7-7.1 0-.7-1-.9-1.2-.2z" fill="#000000" stroke-width="none" opacity="1"></path><path id="SvgjsPath3773" d="M112.5 187.5c8.8.5 18.1-.7 26.6-2.9.7-.2.6-1.4-.2-1.3-8.8 1.1-17.7 2-26.5 3.3-.5.1-.3.9.1.9z" fill="#000000" stroke-width="none" opacity="1"></path><path id="SvgjsPath3774" d="M63.1 182.5c3.8.9 7.6 1.9 11.5 2.8 3.6.8 7.4 2 11.1 2.1.7 0 .8-.9.2-1.2-3.5-1.4-7.5-1.7-11.2-2.5-3.8-.7-7.5-1.3-11.3-2-.5 0-.7.7-.3.8z" fill="#000000" stroke-width="none" opacity="1"></path></g><g id="svga-group-clothes-single"><path id="SvgjsPath3668" d="M63.33 170.93s-12.22 5.29-16.7 6.92c-4.48 1.63-12.63 5.91-17.11 11.2-4.48 5.29-5.09 12.63-5.7 17.92-.61 5.29.58 11.73.58 11.73h152.36s.2-14.17-2.65-22.32-5.7-9.78-14.87-15.48c-9.16-5.7-18.53-7.94-26.07-11.61 0 0-3.05 12.83-30.55 14.26-27.48 1.43-34-6.92-39.29-12.62z" fill="#ffffff" stroke-width="none" opacity="1"></path><path id="SvgjsPath3669" d="M175.06 196.05c-2.9-8.3-5.87-10.15-14.69-15.63l-.6-.37c-5.81-3.62-11.81-5.9-17.1-7.91-3.23-1.23-6.28-2.39-9.06-3.75a1.02 1.02 0 0 0-.87 0c-.27.13-.47.38-.54.67-.03.12-3.19 12.12-29.63 13.49-11.02.58-18.6-.45-24.07-2.24-.04-.14-.21-.21-.31-.1-.46-.16-.91-.31-1.34-.48.01-.02.01-.04.02-.06.08-.25-.3-.35-.39-.11 0 .01 0 .01-.01.02-6.05-2.41-9.18-5.81-11.8-8.66l-.63-.68c-.29-.31-.74-.4-1.13-.24-.12.05-12.24 5.3-16.64 6.9-3.9 1.42-12.58 5.64-17.53 11.49-4.44 5.25-5.25 12.38-5.83 17.59l-.1.86c-.62 5.38.54 11.76.59 12.02.09.47.5.82.98.82h152.36a1 1 0 0 0 1-.99c.03-.56.19-14.42-2.68-22.64zm-4.34-4.67c-.51-.5-1.02-1-1.52-1.51.1-.08.19-.16.26-.22.46.55.87 1.12 1.26 1.73zm-1.89-1.17c.98 1.01 1.94 2.08 2.94 3.08.48 1 .94 2.12 1.4 3.42l.03.11c-1.74-1.87-3.76-3.55-5.68-5.25.51-.59.95-1.04 1.31-1.36zm-66.15-5.66c23.41-1.21 29.59-10.57 31.06-13.88.7.33 1.42.64 2.15.95-1.03 1.47-3.85 5.21-8.22 8.8-3.79 3.11-12.73 6.36-23.97 7.02.1-.66.16-1.34.25-2 .03-.19-.28-.19-.3 0-.08.66-.2 1.34-.27 2.01-.68.04-1.37.06-2.07.08.11-.96.07-1.97.08-2.92l1.29-.06zm-4.2 2.99c-.61-.01-1.22-.03-1.83-.05.07-.92.03-1.87.04-2.79.62 0 1.25 0 1.9-.02-.05.93-.14 1.92-.11 2.86zm.5-2.86c.67-.01 1.35-.03 2.04-.06-.08.95-.2 1.95-.18 2.92-.6.01-1.2.02-1.82.01.06-.95-.01-1.94-.04-2.87zm-2.73.03c-.03.91-.09 1.85-.06 2.76a65.89 65.89 0 0 1-3.39-.24c.04-.87.02-1.74.01-2.6 1.1.04 2.25.07 3.44.08zm-18.35-2.47c.39.13.8.25 1.21.37-.18.58-.36 1.18-.48 1.77-.35-.11-.7-.23-1.04-.34.11-.45.11-.94.2-1.4.04-.15.08-.27.11-.4zm1.71.51c.27.07.55.15.83.22-.1.6-.25 1.24-.31 1.86-.32-.09-.63-.18-.94-.28.18-.58.31-1.19.42-1.8zm1.26.33c1.02.25 2.11.48 3.26.67-.15.66-.3 1.35-.36 2.02a66.49 66.49 0 0 1-3.1-.79c.12-.62.14-1.29.2-1.9zm3.79.76c.58.09 1.17.18 1.78.26-.23.71-.39 1.46-.38 2.16-.43-.08-.87-.17-1.3-.26l-.39-.09c.15-.67.23-1.39.29-2.07zm2.14 1.07c.05-.25.12-.5.19-.75.45.06.92.11 1.39.15-.11.77-.22 1.55-.21 2.32-.51-.08-1.03-.17-1.55-.27.07-.48.08-.98.18-1.45zm2.02-.55c.48.05.97.09 1.47.12-.21.76-.38 1.63-.34 2.42-.46-.06-.92-.13-1.38-.2.16-.75.21-1.55.25-2.34zm1.67 1.71c.05-.53.15-1.04.28-1.55l1.56.09c-.03.85-.07 1.71-.06 2.57-.6-.06-1.2-.13-1.81-.21.01-.3 0-.6.03-.9zm-13.05-3.99c-.03.09-.07.18-.09.28-.11.45-.26 1-.24 1.5-.48-.17-.95-.34-1.41-.51.21-.55.4-1.11.57-1.68.38.14.77.28 1.17.41zm-2.2 1.08c-.4-.16-.8-.32-1.18-.48.22-.56.4-1.11.61-1.67.36.16.74.32 1.13.47-.21.56-.4 1.12-.56 1.68zm-6.64-5.73c-.52.46-.95 1.02-1.3 1.62-.5-.34-.96-.67-1.4-1 .55-.48 1.12-.97 1.64-1.48.34.28.69.57 1.06.86zm.33.25c.4.3.82.6 1.26.89-.36.33-.68.72-1 1.09l-.33.39c-.45-.27-.88-.54-1.29-.82.4-.57.86-1.07 1.36-1.55zm.65 2.22c.32-.36.66-.72.93-1.12.3.19.61.39.93.58-.46.42-.86.94-1.18 1.49a30.4 30.4 0 0 1-1.01-.57c.1-.13.22-.25.33-.38zm2.29-.29c.72.41 1.49.8 2.31 1.18-.27.54-.49 1.11-.59 1.69-1.06-.47-2.05-.95-2.96-1.43.38-.52.8-.97 1.24-1.44zm-4.71-3.37c-.55.49-1.08 1.03-1.6 1.55-.67-.52-1.26-1.03-1.78-1.51.27-.35.56-.67.89-.96.27-.23.56-.42.85-.61.51.5 1.05 1.01 1.64 1.53zm-1.98-1.88c-.66.4-1.24 1.03-1.68 1.65-.67-.64-1.21-1.23-1.63-1.74.33-.23.65-.47.97-.71.31-.23.63-.45.94-.68.44.49.91.98 1.4 1.48zm-2.11-2.24.14.16c.07.08.14.15.21.23-.36.26-.71.54-1.06.8l-.81.6c-.26-.33-.48-.63-.64-.87.92-.38 1.67-.7 2.16-.92zm-34.94 21.39c3.3 2.32 6.88 4.55 10.66 6 .42.86.84 1.79 1.24 2.78-3.8-2.44-8.08-4.62-12.15-6.46-.21-.09-.38.18-.18.31 3.94 2.51 8.31 5 12.62 6.88.35.91.69 1.86 1.01 2.87-4.79-2.96-10-5.52-15.06-8.01.58-2.22 1.42-4.4 2.68-6.38 2.36 1.56 4.76 3.26 7.31 4.42.17.08.4-.15.22-.29-2.21-1.75-4.8-3.12-7.27-4.52.24-.35.49-.69.75-1.02 1.39.84 2.81 1.74 4.29 2.36 1.28 1.53 2.75 3.62 4.15 6.34-3.39-1.84-6.81-3.56-10.08-5.64-.21-.17-.41.2-.19.36zm2.17-3.83c.17-.2.36-.4.54-.6.43.32 1.27 1.01 2.32 2.12-.93-.55-1.9-1.04-2.86-1.52zm-5.05 28.02c-.09-.6-.22-1.5-.33-2.57.27.18.53.37.83.48.19.07.33-.2.2-.34-.29-.29-.68-.47-1.03-.69a.21.21 0 0 1-.06-.04c-.06-.64-.11-1.33-.15-2.05 2.35 1.98 4.97 3.93 7.81 5 .17.06.25-.19.12-.28-2.66-1.83-5.42-3.37-7.96-5.37-.05-1.15-.05-2.35.03-3.51 5.06 3.02 10.09 6.25 15.34 8.91.21.11.39-.19.19-.32-4.95-3.29-10.31-6.1-15.47-9.05-.01-.01-.02 0-.03 0 .02-.27.05-.53.08-.79l.1-.86c.28-2.47.59-5.22 1.27-7.94 4.87 2.8 9.89 5.66 15.01 7.97.1.05.2 0 .25-.07.53 1.69 1 3.52 1.41 5.51-5.55-3.1-11.15-6.03-16.6-9.31-.25-.15-.47.23-.23.39 5.33 3.59 11.04 7.02 16.97 9.57.23 1.19.43 2.43.61 3.73-5.98-3.51-12.01-6.6-17.65-10.69-.21-.15-.4.19-.2.35 5.39 4.15 11.38 8.26 17.81 10.59.03.01.05 0 .07 0 .06.46.12.92.17 1.39H25.25zm20.56 0c-2.15-19.99-10.98-28.11-13.53-30.06 4.49-4.18 10.97-7.49 14.7-8.85 2.71-.99 8.13-3.26 12.08-4.94 1.5 2.4 7.65 10.32 25.28 14.1a73.48 73.48 0 0 0 15.4 1.63c13.64 0 24.62-3.84 29.22-7.62 5-4.11 8-8.31 8.84-9.57 1.36.54 2.75 1.07 4.18 1.62 5.46 2.08 11.11 4.23 16.75 7.74l.6.37c4.04 2.51 6.74 4.2 8.76 6.08-.7.55-1.94 1.69-3.35 3.62-.1.03-.18.12-.17.23-3.01 4.21-6.75 12.03-7.84 25.65H45.81zm119.12 0c-1.79-1.72-3.73-3.28-5.65-4.85.14-.98.3-1.93.47-2.84 2.53 2.85 5.37 5.59 8.57 7.69h-3.39zm-3.55 0c-.74-.73-1.62-1.34-2.47-1.94.09-.83.19-1.64.3-2.42 1.71 1.5 3.43 3 5.24 4.36h-3.07zm-2.52-1.47c.61.52 1.24 1.03 1.9 1.47h-2.04c.04-.5.09-.99.14-1.47zm10.35 1.47c-3.34-2.56-6.52-5.13-9.35-8.27.19-.97.4-1.9.62-2.78 3.51 4.03 7.52 7.91 12.05 10.78.21.13.47-.19.27-.35-4.28-3.46-8.43-6.85-12.19-10.89-.01-.01-.01 0-.02-.01a49 49 0 0 1 .96-3.3c4 3.23 7.92 6.59 12.08 9.62.16.12.37-.15.22-.28-3.91-3.39-8.09-6.46-12.16-9.65-.01-.01-.02 0-.03-.01.5-1.48 1.02-2.81 1.56-4 3.48 3.92 7.31 7.78 11.67 10.7.18.12.39-.15.23-.29-3.99-3.56-8.02-6.94-11.7-10.83.39-.85.79-1.62 1.19-2.33 3.09 3.13 6.11 6.5 9.53 9.22.18.14.4-.07.25-.25-2.82-3.39-6.3-6.35-9.53-9.39.39-.66.76-1.26 1.13-1.79 2.55 2.64 5.08 5.41 7.93 7.66.17.13.37-.07.24-.24-2.31-2.84-5.16-5.34-7.87-7.85.32-.45.63-.85.93-1.21 2.02 1.95 4.01 4.01 6.25 5.68 2.06 6.71 2.29 16.89 2.3 20.08h-6.56z" fill="#000000" stroke-width="none" opacity="1"></path></g><g id="svga-group-head" transform="matrix(1,0,0,1,0,0)"><g id="svga-group-ears-left-move" transform="matrix(1,0,0,1,0,0)"><g id="svga-group-ears-left"><path id="SvgjsPath4793" d="M57.9 81.4s-3-4.7-6.1-5.6-6.6 2.1-6.1 7.8c.6 5.7 8.7 18.9 15.9 19.7 6.2.7-1.1-18.5-3.7-21.9z" fill="#ffffff" stroke-width="none" opacity="1"></path><path id="SvgjsPath4794" d="M61.5 104.2c-7.7-.8-16.1-14.5-16.7-20.4-.3-3.4.8-6.4 3-7.9 1.3-.9 2.9-1.2 4.4-.8 3.3.9 6.2 5.3 6.6 5.9 2.1 2.7 8.5 18 5.5 22-.5.7-1.4 1.1-2.3 1.1-.3.1-.4.1-.5.1zM48.9 77.1c-1.7 1.1-2.5 3.6-2.3 6.4.5 5.4 8.5 18.3 15 18.9.4 0 .7 0 .9-.3 2.1-2.9-3.2-17.2-5.5-20.3v-.1c-.8-1.2-3.3-4.6-5.5-5.2-.2-.1-.5-.1-.7-.1-.7.2-1.3.4-1.9.7z" fill="#000000" stroke-width="none" opacity="1"></path><path id="SvgjsPath4795" d="M50.5 79.3c2.6 1.4 5 5.6 6.2 9.6v.1c0 .3-.2.4-.3.1-.4-1.2-1-1.2-1.7 0-.2.7-.1 1.5.1 2.3.2.7.5 1.4.8 1.9.6 1.2 1.4 2 2.1 3 .2.3 0 .7-.2.5-1.6-1-3.9-4.6-3.4-7.6.2-1.4 1.1-2.2 1.8-1.7-.9-2.1-1.9-3.9-3.2-5.4-.7-.8-2.3-2.7-3.1-2.3-1.5.6-.7 4.6-.5 6.4 0 .3-.2.4-.3.1-1-2.9-1.1-8.5 1.7-7z" fill="#000000" stroke-width="none" opacity="1"></path><path id="SvgjsPath4796" d="M56.9 97.8c-2.8-.9-4.8-4.6-6-8.8-.7-2.5-2.1-8.3.6-8.2.2 0 .3.5.1.6-2.5 1.1.2 8.9 1 10.7 1.1 2.6 2.5 4.3 4.3 5.2.2.2.2.6 0 .5z" fill="#000000" stroke-width="none" opacity="1"></path></g></g><g id="svga-group-ears-right-move" transform="matrix(1,0,0,1,0,0)"><g id="svga-group-ears-right"><path id="SvgjsPath4797" d="M142.1 81.4s3-4.7 6.1-5.6 6.6 2.1 6.1 7.8c-.6 5.7-8.7 18.9-15.9 19.7-6.2.7 1.1-18.5 3.7-21.9z" fill="#ffffff" stroke-width="none" opacity="1"></path><path id="SvgjsPath4798" d="M138.1 104.2c-1 0-1.8-.4-2.3-1.1-2.9-4 3.4-19.3 5.5-22 .4-.6 3.3-5.1 6.6-5.9 1.5-.4 3-.1 4.4.8 2.2 1.5 3.3 4.4 3 7.9-.6 5.9-9 19.6-16.7 20.4-.2-.1-.3-.1-.5-.1zm11.1-27.6c-.2 0-.5 0-.7.1-2.2.6-4.7 3.9-5.5 5.2v.1c-2.4 3-7.7 17.4-5.5 20.3.2.3.4.4.9.3 6.5-.7 14.5-13.6 15-18.9.3-2.9-.6-5.3-2.3-6.4-.6-.5-1.2-.7-1.9-.7z" fill="#000000" stroke-width="none" opacity="1"></path><path id="SvgjsPath4799" d="M149.5 79.3c-2.6 1.4-5 5.6-6.2 9.6v.1c0 .3.2.4.3.1.4-1.2 1-1.2 1.7 0 .2.7.1 1.5-.1 2.3-.2.7-.5 1.4-.8 1.9-.6 1.2-1.4 2-2.1 3-.2.3 0 .7.2.5 1.6-1 3.9-4.6 3.4-7.6-.2-1.4-1.1-2.2-1.8-1.7.9-2.1 1.9-3.9 3.2-5.4.7-.8 2.3-2.7 3.1-2.3 1.5.6.7 4.6.5 6.4 0 .3.2.4.3.1 1-2.9 1.1-8.5-1.7-7z" fill="#000000" stroke-width="none" opacity="1"></path><path id="SvgjsPath4800" d="M143.1 97.8c2.8-.9 4.8-4.6 6-8.8.7-2.5 2.1-8.3-.6-8.2-.2 0-.3.5-.1.6 2.5 1.1-.2 8.9-1 10.7-1.1 2.6-2.5 4.3-4.3 5.2-.2.2-.2.6 0 .5z" fill="#000000" stroke-width="none" opacity="1"></path></g></g><g id="svga-group-faceshape-wrap"><g id="svga-group-faceshape-single"><path id="SvgjsPath4100" d="M141.7 91.8c-.3-5.4 2.1-24 2.1-24-.1-3.3-.3-8.9-1.4-14.2-2.3-11.4-15.1-28.8-42.4-28.8S63.6 38.2 59.6 48.1c-2.5 6.2-3.2 15.2-3.4 19.7 0 0 .4 17.5 1.1 23.3.7 5.8-4.7 22.4-3.7 26.4 1 4.1 28.8 16.9 33.2 21 4.4 4.1 16.3 5.1 21 2 4.7-3.1 34.9-22.4 36.6-24.1 1.7-1.5-2.4-19.1-2.7-24.6z" fill="#ffffff" stroke-width="none" opacity="1"></path><path id="SvgjsPath4101" d="M99.7 143.6c-5.2 0-10.9-1.5-13.7-4.1-1.7-1.6-7.4-4.7-13.4-8-12.1-6.7-19.5-10.9-20.2-13.6-.6-2.3.5-7.3 1.7-13 1.1-5.1 2.3-10.8 2-13.5C55.4 85.7 55 68.7 55 68c.2-4.8.9-13.8 3.4-20.1 6.6-16.2 20.1-24 41.5-24 12.3 0 23.2 3.6 31.3 10.4 6.3 5.2 10.9 12.5 12.2 19.3 1.1 5.5 1.3 11.4 1.4 14.4v.2c0 .2-2.4 18.5-2.1 23.8.1 1.8.7 5.3 1.3 8.9 1.9 11.4 2.4 15.4 1.1 16.7-1.1 1.1-12.4 8.5-35.4 23.3l-1.4.9c-2 1.2-5.2 1.8-8.6 1.8zM57.3 67.9c0 .9.4 17.6 1.1 23.2.4 3.1-.8 8.8-2 14.3-1 4.8-2.2 10.3-1.7 12 .1.2.6 1.3 6.2 4.8 3.7 2.3 8.4 4.9 12.9 7.3 6.4 3.5 11.9 6.6 13.8 8.3 3.9 3.6 15.3 4.7 19.6 1.9l1.4-.9c27.1-17.4 34-22.1 34.9-22.9.6-1.4-.8-9.8-1.7-14.8-.6-3.7-1.2-7.2-1.3-9.1-.3-5.3 1.9-22.6 2.1-24.1 0-3-.3-8.7-1.4-13.9-1.3-6.4-5.6-13.1-11.5-18-7.7-6.5-18-9.9-29.9-9.9-20.3 0-33.2 7.4-39.4 22.6-2.2 5.8-2.9 14.5-3.1 19.2z" fill="#000000" stroke-width="none" opacity="1"></path></g></g><g id="svga-group-mouth-single-move" transform="matrix(1,0,0,1,0,0)"><g id="svga-group-mouth-single"><path id="SvgjsPath4701" d="M111.66 121.52c-.08.1-.16.18-.25.26-.64-1.77-1.43-3.67-3.08-4.7-2.15-1.33-4.67-.5-6.96-.16-2.09.31-3.67-.36-5.68-.59-.93-.11-1.82.01-2.7.37-2.32.95-3.7 3.14-4.92 5.21-.07-.04-.14-.08-.2-.13-.42-.34-1.03.26-.6.6.59.47 1.25.71 1.94.79.01.01 0 .03.02.04 3.11 2.87 7.3 3.7 11.43 3.43 2.32-.16 4.68-.55 6.93-1.14 1.37-.36 2.56-1 3.01-2.35.69-.19 1.31-.57 1.79-1.2.34-.43-.4-.86-.73-.43zm-18.05-4.58c2.21-.66 4.3.67 6.53.56 2.35-.11 4.78-1.27 7.11-.46 2.17.76 3.1 3.02 3.81 5.02-1.69 1.09-4.58-.11-6.25-1.12.24-.12.49-.25.72-.39.47-.27.05-1.01-.43-.74-3.6 2.08-7.94 2.19-11.63.28-.49-.25-.92.48-.43.74.29.15.58.28.87.41-1.63.72-3.88 1.55-5.46.87 1.24-2.08 2.69-4.44 5.16-5.17zm11.86 8.59c-2.02.4-4.06.72-6.12.74-3.43.04-6.82-.82-9.46-3.06 1.76-.02 3.66-.87 5.14-1.55 2.9.94 6.01.84 8.84-.3l.01.01c1.55 1.05 4.11 2.2 6.2 1.89-.76 1.65-2.96 1.94-4.61 2.27z" fill="#000000" stroke-width="none" opacity="1"></path></g></g><g id="svga-group-eyes-left-move" transform="matrix(1,0,0,1,0,0)"><g id="svga-group-eyes-left"><g id="svga-group-eyesback-left"></g><g id="svga-group-eyesiriswrapper-left"><g id="svga-group-eyesiriscontrol-left" transform="matrix(1,0,0,1,0,0)"><g id="svga-group-eyesiris-left"><path id="SvgjsPath5821" d="M83.4 89.5c1.1-2 .1-4.9-1.7-6.1-2-1.3-4.8-.9-6.3 1.3-.8 1.2-1.2 2.8-.6 4.1.2.4.8 1.9 2 2.5 2.3 1.3 5.3.7 6.6-1.8z" fill="#ffffff" stroke-width="none" opacity="1"></path><path id="SvgjsPath5822" d="M81.9 83.2c-2.2-1.5-5.1-.9-6.8 1.3-1 1.3-1.2 3.1-.7 4.4.2.5.8 2 2.1 2.6.9.4 1.8.7 2.7.7 1.8 0 3.5-.9 4.4-2.6 1.2-2 .3-5-1.7-6.4zm-6.8 5.5c-.5-1.1-.2-2.6.6-3.8.9-1.2 2.2-1.9 3.6-1.9.2 0 .4 0 .7.1.1 0 .1.1.2.2 0 0 .1.1.1 0h.3c.1.1.1.1.1.2s.2.1.2.1c.1-.1.1-.1.2-.1.1.1.2.1.3.2.1.1.2.3.2.4 0 .1.1.1.1.1.2 0 .3.1.4.2.1.1.1.2.1.4 0 .1.1.1.2.1h.3c.2.2.2.5.2.8 0 .1 0 .2.1.2.2 0 .4.2.4.4 0 .1-.1.2-.1.3-.1.1 0 .2.1.2.1.1.6.8.2.9-.1 0-.1.1-.1.2.1.1.2.3.2.4 0 .1-.1.2-.1.4-.1.1-.1.1-.3.2-.1 0-.1.1-.1.2.1.3 0 .5-.3.7h-.2c-.1 0-.2.1-.2.2.1.4-.2.7-.6.6-.1 0-.1.1-.1.2v.2c-.2.3-.5.2-.8.1-.1-.1-.2 0-.2.2v.2c-.1.1-.4.1-.5 0-.1-.1-.3-.1-.3.1-.1.1-.3.2-.4 0-.1-.1-.2-.1-.2 0l-.2.2c-.1 0-.2.1-.2-.1 0-.1-.1-.1-.2-.1-.1.1-.2.1-.2.1-.1 0-.2-.1-.3-.1 0 0-.1-.1-.1-.2-.1-.1-.2-.1-.3 0l-.3-.3-.1-.1c-.2 0-.3-.1-.5-.1l-.1-.1c0-.1-.1-.2-.2-.2h-.2c-.9-.7-1.3-1.6-1.4-1.9zm1.7-2.8c-.2-.3-.6-.5-1-.5-.1 0-.1.1 0 .1.2.1.3.1.5.2s.3.2.4.3c0 .1.1 0 .1-.1zm.3-2.2s-.1 0 0 0c.1.5.3 1 .6 1.4 0 0 .1 0 .1-.1-.1-.4-.4-.9-.7-1.3zm2 .1c0-.1-.1-.1 0 0 0 .3 0 .6.1.9 0 .1.1 0 .1 0-.1-.4-.2-.7-.2-.9zm2.7.5c-.3.2-.5.6-.7.8-.1.1 0 .2.1.1.2-.2.5-.4.6-.9.1.1 0 0 0 0zm1 3.3h-.3c-.1 0-.2 0-.4-.1-.1 0-.2.1-.1.2.2.1.5.2.8.1v-.2zm.1.9c-.3-.1-.6-.1-.8-.2-.1 0-.1.1 0 .1.2.1.5.2.8.1 0 .1 0 0 0 0zm-4.6 1.8c0-.1-.1-.1-.1 0v.4c0 .1-.1.2-.1.3 0 .1.1.1.1.1.1-.2.2-.5.1-.8zm-1.8-1c-.1 0-.2.1-.2.1-.1.1-.2.1-.2.1-.1 0-.1.1 0 .1s.2 0 .3-.1c.1 0 .2-.1.1-.2.1 0 .1-.1 0 0zm-1-1.7c-.2 0-.4 0-.7.1-.1 0-.1.1 0 .1.3 0 .5 0 .7-.2 0 .1.1.1 0 0zm5.2 1c.2 0 .4.1.5.3.6-.9.7-2.2-.2-3.1-.6-.5-1.4-.8-2.2-.6-.1 0-.2.1-.4.1.6.6.3 1.8-.7 1.8-.3 0-.5-.1-.7-.2-.2.6-.2 1.3.2 1.9.7 1 2 1.4 3.1.8-.3-.2-.2-1 .4-1z" fill="#000000" stroke-width="none" opacity="1"></path></g></g></g><g id="svga-group-eyesfront-left"><path id="SvgjsPath5367" d="M79 72.1c-8.2 0-14.8 6.6-14.8 14.8s6.6 14.8 14.8 14.8 14.8-6.6 14.8-14.8c0-8.1-6.6-14.8-14.8-14.8zm9.2 21.1c-.5-.2-1.9.2-5.8.1s-7.9-1.2-11-3-3.9-6.2-3.9-6.2 4.4-.9 10.3-.6 9.1 2.3 10.1 4c1.1 1.8 2.2 5.3 2.2 5.3-.1.7-1.5.6-1.9.4z" fill="#ffffff" stroke-width="none" opacity="1"></path><path id="SvgjsPath5368" d="M90.7 92.3c-.2 0-.3.1-.5.1-.1-.2-.1-.4-.2-.7.2-.1.4-.2.6-.4.2-.2.1-.5-.2-.5-.2 0-.4.1-.6.2-.1-.1-.1-.3-.2-.5.4-.2.7-.4 1-.6.2-.2.1-.5-.2-.5-.4 0-.7.2-1.1.4-.1-.2-.2-.4-.3-.7.5-.2.9-.4 1.3-.7.2-.1 0-.5-.2-.4-.5.1-.9.3-1.4.5-.1-.1-.1-.3-.2-.4.4-.2.8-.4 1.1-.7.2-.2 0-.4-.2-.4-.4.1-.8.3-1.2.5-.1-.2-.2-.3-.3-.5.4-.2.8-.4 1.1-.7.2-.2 0-.4-.2-.4-.5.1-.9.3-1.3.5-.1-.2-.3-.4-.5-.6.5-.2.9-.4 1.4-.7.2-.1.1-.4-.1-.4-.6 0-1.2.3-1.7.6l-.3-.3c.5-.2.9-.4 1.3-.7.1-.1 0-.3-.2-.3-.5.2-1 .5-1.4.8l-.1-.1c-.1 0-.1-.1-.2-.1l.9-.6c.1-.1 0-.3-.1-.3-.5 0-1 .2-1.4.5-.1-.1-.2-.1-.4-.2l.3-.3c.1-.1 0-.4-.2-.4-.3-.1-.7.1-.9.3-4.7-1.7-13.6-1.5-17.8-.1-.3.1-.5.5-.4.8s.5.5.8.4c.1 0 .3-.1.4-.1-.1.1-.1.3-.1.5.1.4 2 8.7 15.8 8.7 1.5 0 3.2-.1 5.1-.3.4 0 .6-.4.6-.7 0-.4-.4-.6-.7-.6-17.1 2.1-19.3-6.9-19.4-7.3 0-.2-.2-.4-.4-.4 5.2-1.2 14.6-.9 17.4 1.2 3 2.3 4.3 8.5 4.4 8.6.1.3.3.5.6.5h.1c.4-.1.6-.4.5-.8 0-.1-.1-.5-.3-1 .2 0 .4-.2.5-.4.1-.1-.1-.3-.3-.3zm-24.2-5c-.2-.2-.5.1-.3.3 1.5 2 3.4 3.9 5.8 4.8.2.1.3-.2.2-.4-2-1.5-4-2.9-5.7-4.7z" fill="#000000" stroke-width="none" opacity="1"></path></g></g></g><g id="svga-group-eyes-right-move" transform="matrix(1,0,0,1,0,0)"><g id="svga-group-eyes-right"><g id="svga-group-eyesback-right"></g><g id="svga-group-eyesiriswrapper-right"><g id="svga-group-eyesiriscontrol-right" transform="matrix(1,0,0,1,0,0)"><g id="svga-group-eyesiris-right"><path id="SvgjsPath5823" d="M125.4 89.5c1.1-2 .1-4.9-1.7-6.1-2-1.3-4.8-.9-6.3 1.3-.8 1.2-1.2 2.8-.6 4.1.2.4.8 1.9 2 2.5 2.4 1.3 5.4.7 6.6-1.8z" fill="#ffffff" stroke-width="none" opacity="1"></path><path id="SvgjsPath5824" d="M123.9 83.2c-2.2-1.5-5.1-.9-6.8 1.3-1 1.3-1.2 3.1-.7 4.4.2.5.8 2 2.1 2.6.9.4 1.8.7 2.7.7 1.8 0 3.5-.9 4.4-2.6 1.2-2 .4-5-1.7-6.4zm-6.8 5.5c-.5-1.1-.2-2.6.6-3.8.9-1.2 2.2-1.9 3.6-1.9.2 0 .4 0 .7.1.1 0 .1.1.2.2 0 0 .1.1.1 0h.3c.1.1.1.1.1.2s.2.1.2.1c.1-.1.1-.1.2-.1.1.1.2.1.3.2.1.1.2.3.2.4 0 .1.1.1.1.1.2 0 .3.1.4.2.1.1.1.2.1.4 0 .1.1.1.2.1h.3c.2.2.2.5.2.8 0 .1 0 .2.1.2.2 0 .4.2.4.4 0 .1-.1.2-.1.3-.1.1 0 .2.1.2.1.1.6.8.2.9-.1 0-.1.1-.1.2.1.1.2.3.2.4 0 .1-.1.2-.1.4-.1.1-.1.1-.3.2-.1 0-.1.1-.1.2.1.3 0 .5-.3.7h-.2c-.1 0-.2.1-.2.2.1.4-.2.7-.6.6-.1 0-.1.1-.1.2v.2c-.2.3-.5.2-.8.1-.1-.1-.2 0-.2.2v.2c-.1.1-.4.1-.5 0-.1-.1-.3-.1-.3.1-.1.1-.3.2-.4 0-.1-.1-.2-.1-.2 0l-.2.2c-.1 0-.2.1-.2-.1 0-.1-.1-.1-.2-.1-.1.1-.2.1-.2.1-.1 0-.2-.1-.3-.1 0 0-.1-.1-.1-.2-.1-.1-.2-.1-.3 0l-.3-.3-.1-.1c-.2 0-.3-.1-.5-.1l-.1-.1c0-.1-.1-.2-.2-.2h-.2c-.9-.7-1.3-1.6-1.4-1.9zm1.7-2.8c-.2-.3-.6-.5-1-.5-.1 0-.1.1 0 .1.2.1.3.1.5.2s.3.2.4.3c.1.1.2 0 .1-.1zm.4-2.2c-.1 0-.1 0 0 0 .1.5.3 1 .6 1.4 0 0 .1 0 .1-.1-.2-.4-.4-.9-.7-1.3zm1.9.1c0-.1-.1-.1 0 0 0 .3 0 .6.1.9 0 .1.1 0 .1 0 0-.4-.1-.7-.2-.9zm2.7.5c-.3.2-.5.6-.7.8-.1.1 0 .2.1.1.2-.2.5-.4.6-.9.1.1.1 0 0 0zm1 3.3h-.3c-.1 0-.2 0-.4-.1-.1 0-.2.1-.1.2.2.1.5.2.8.1.1-.1 0-.2 0-.2zm.1.9c-.3-.1-.6-.1-.8-.2-.1 0-.1.1 0 .1.2.1.5.2.8.1.1.1.1 0 0 0zm-4.6 1.8c0-.1-.1-.1-.1 0v.4c0 .1-.1.2-.1.3 0 .1.1.1.1.1.2-.2.2-.5.1-.8zm-1.7-1c-.1 0-.2.1-.2.1-.1.1-.2.1-.2.1-.1 0-.1.1 0 .1s.2 0 .3-.1c0 0 .1-.1.1-.2.1 0 0-.1 0 0zm-1.1-1.7c-.2 0-.4 0-.7.1-.1 0-.1.1 0 .1.3 0 .5 0 .7-.2.1.1.1.1 0 0zm5.3 1c.2 0 .4.1.5.3.6-.9.7-2.2-.2-3.1-.6-.5-1.4-.8-2.2-.6-.1 0-.2.1-.4.1.6.6.3 1.8-.7 1.8-.3 0-.5-.1-.7-.2-.2.6-.2 1.3.2 1.9.7 1 2 1.4 3.1.8-.4-.2-.2-1 .4-1z" fill="#000000" stroke-width="none" opacity="1"></path></g></g></g><g id="svga-group-eyesfront-right"><path id="SvgjsPath5369" d="M121 72.1c-8.2 0-14.8 6.6-14.8 14.8s6.6 14.8 14.8 14.8 14.8-6.6 14.8-14.8c0-8.1-6.6-14.8-14.8-14.8zm7.6 18.2c-3.1 1.8-7.1 2.9-11 3s-5.3-.3-5.8-.1c-.5.2-1.9.3-1.9-.4 0 0 1.1-3.5 2.2-5.3s4.3-3.8 10.1-4 10.3.6 10.3.6-.8 4.4-3.9 6.2z" fill="#ffffff" stroke-width="none" opacity="1"></path><path id="SvgjsPath5372" d="M133.8 83.8c-4.8-1.6-16.1-1.7-19.7 1.1-3.4 2.6-4.8 9.1-4.8 9.3-.1.4.2.7.5.8h.1c.3 0 .6-.2.6-.5 0-.1 1.4-6.3 4.4-8.6 2.7-2.1 12.2-2.4 17.4-1.2-.2.1-.3.2-.4.4-.1.4-2.3 9.4-19.4 7.3-.4 0-.7.2-.7.6s.2.7.6.7c1.8.2 3.5.3 5.1.3 13.8 0 15.7-8.3 15.8-8.7 0-.2 0-.4-.1-.5.1 0 .3.1.4.1.3.1.7-.1.8-.4-.1-.2-.3-.6-.6-.7z" fill="#000000" stroke-width="none" opacity="1"></path></g></g></g><g id="svga-group-facehighlight-single"></g><g id="svga-group-eyebrows-left-move" transform="matrix(1,0,0,1,0,0)"><g id="svga-group-eyebrows-left-rotate" transform="matrix(1,1.7453292519943295e-9,-1.7453292519943295e-9,1,1.2627384649022133e-7,-1.3469578163949336e-7)"><g id="svga-group-eyebrows-left"><path id="SvgjsPath5620" d="M71.56 71.57c4.09-.17 10.75 3.28 13.7 4.98 2.94 1.7 6.34 1.7 5.89-1.02s-11.66-6.91-15.17-7.47c-3.51-.57-6.79 1.13-12.23 6.79 0 0 5.09-3.17 7.81-3.28z" fill="#ffffff" stroke-width="none" opacity="1"></path><path id="SvgjsPath5621" d="M63.35 75.18c.16.2.45.25.67.11.05-.03 5.01-3.1 7.56-3.21 3.37-.13 9.14 2.45 13.42 4.92 1.41.81 2.85 1.24 4.03 1.24.72 0 1.34-.16 1.8-.48.69-.48.98-1.3.82-2.31-.53-3.17-12.15-7.34-15.59-7.89-3.79-.61-7.23 1.27-12.68 6.94-.18.19-.19.48-.03.68zm7.74-4.08c-.56.02-1.8.07-2.68.11.59-.47 1.16-.88 1.7-1.22l2.22 1.08c-.27-.02-.54-.02-.8-.01-.13.01-.28.02-.44.04zm3.44.3a.24.24 0 0 0-.08-.06l-3.62-1.76c.47-.26.93-.46 1.38-.63l3.17 2.66c-.28-.08-.57-.14-.85-.21zm2.55.75-4.11-3.45c.58-.15 1.15-.22 1.72-.23l4.06 4.3c-.55-.21-1.11-.42-1.67-.62zm.16-3.29c0 .01 0 .01.01.02 1.26 1.57 2.93 3.66 4 5-.3-.14-.61-.28-.92-.42l-4.61-4.89c.06.01.12.01.18.01.38.05.84.15 1.34.28zm5.43 5.71c-.69-.88-3.1-3.88-4.32-5.41.62.18 1.28.4 1.96.64l3.66 5.45c-.39-.21-.83-.44-1.3-.68zm2.61 1.41L81.4 70.2c.57.21 1.15.44 1.73.68.01.01 0 .03.01.04l3.36 5.68c-.33-.14-.66-.3-.99-.49-.07-.04-.15-.09-.23-.13zm2.23.98-3.34-5.64c.63.28 1.25.56 1.83.85v.01l2.49 4.99c-.3-.05-.63-.11-.98-.21zm1.77.23-2.25-4.5c.62.33 1.19.66 1.69.98l1.05 3.45c-.16.04-.32.06-.49.07zm1.1-.38-.75-2.47c.58.47.94.91 1.01 1.28.11.69-.09 1.03-.26 1.19zm-23.63-4.18c.27-.25.53-.47.79-.69.22-.01.52-.02.84-.04-.56.22-1.11.47-1.63.73z" fill="#000000" stroke-width="none" opacity="1"></path></g></g></g><g id="svga-group-eyebrows-right-move" transform="matrix(1,0,0,1,0,0)"><g id="svga-group-eyebrows-right-rotate" transform="matrix(1,1.7453292519943295e-9,-1.7453292519943295e-9,1,1.2627384649022133e-7,-2.1438752639824088e-7)"><g id="svga-group-eyebrows-right"><path id="SvgjsPath5622" d="M128.44 71.57c-4.09-.17-10.75 3.28-13.7 4.98-2.94 1.7-6.34 1.7-5.89-1.02s11.66-6.91 15.17-7.47c3.51-.57 6.79 1.13 12.23 6.79 0 0-5.09-3.17-7.81-3.28z" fill="#ffffff" stroke-width="none" opacity="1"></path><path id="SvgjsPath5623" d="M136.62 74.5c-5.45-5.67-8.88-7.55-12.68-6.94-3.44.55-15.06 4.72-15.59 7.89-.17 1.01.12 1.83.82 2.31.46.32 1.08.48 1.8.48 1.18 0 2.62-.43 4.03-1.24 4.28-2.47 10.05-5.05 13.42-4.91 2.55.11 7.51 3.17 7.56 3.21.22.14.51.09.67-.11a.53.53 0 0 0-.03-.69zm-8.16-3.44c-.26-.01-.52 0-.8.01l2.22-1.08c.54.34 1.11.76 1.7 1.22-.88-.04-2.12-.09-2.68-.11-.15-.02-.3-.03-.44-.04zm-3.84.55 3.17-2.66c.45.16.91.37 1.38.63l-3.62 1.76c-.03.02-.06.04-.08.06-.28.07-.57.13-.85.21zm-3.37 1.17 4.06-4.3c.57 0 1.14.08 1.72.23l-4.11 3.45c-.56.19-1.12.4-1.67.62zm2.86-4.21c.06-.01.12-.01.18-.01l-4.61 4.89c-.31.14-.62.28-.92.42 1.07-1.34 2.74-3.43 4-5 0-.01 0-.01.01-.02.49-.12.95-.22 1.34-.28zm-8.08 6.68 3.66-5.45c.69-.24 1.35-.45 1.96-.64-1.22 1.52-3.63 4.53-4.32 5.41-.47.24-.91.47-1.3.68zm-1.54.86c-.33.19-.66.34-.99.49l3.36-5.68c.01-.01 0-.02.01-.04.58-.24 1.16-.47 1.73-.68l-3.88 5.78c-.08.04-.16.09-.23.13zm-2.99 1.05 2.49-4.99v-.01c.59-.29 1.2-.57 1.83-.85l-3.34 5.64c-.34.11-.67.17-.98.21zm-1.26-.04 1.05-3.45c.49-.32 1.07-.65 1.69-.98l-2.25 4.5c-.18-.01-.34-.03-.49-.07zm-.88-1.5c.06-.38.43-.81 1.01-1.28l-.75 2.47c-.17-.16-.37-.5-.26-1.19zm22.26-3.72c.33.01.62.03.84.04.26.22.52.44.79.69-.52-.26-1.07-.51-1.63-.73z" fill="#000000" stroke-width="none" opacity="1"></path></g></g></g><g id="svga-group-beardwrap"><g id="svga-group-beard-single-move" transform="matrix(1,0,0,1,0,0)"><g id="svga-group-beard-single"></g></g></g><g id="svga-group-mustache-single-move" transform="matrix(1,0,0,1,0,0)"><g id="svga-group-mustache-single"><path id="SvgjsPath6630" d="M100.6 110.5s-10.6-1-15.5 2.4-3.6 6.4-3.6 6.4l2.2-1.3.4 1.7 2.3-1.2.6 1.7 2.1-1 .8 1.2 1.8-.8.6 1.3 2.1-1 1.3 1 1.4-1.4 1.2 1.6 1.3-1.3 1.3 1.6 1.3-1.6 1.3 1.6 1-1.6 1 1.3s.8-2.1 1.2-1.7c.4.4 1.3 1.7 1.3 1.7l1.6-1.9.9 1.6 1-1.8s.9 1.3 1 .9.5-1.6.5-1.6l1.9.9-.1-2.1 2.3 2.1s1-2.2-.4-5c-1.4-2.9-7.1-4.5-16.1-3.7z" fill="#ffffff" stroke-width="none" opacity="1"></path><path id="SvgjsPath6631" d="M117.1 113.9c-1.6-3.1-7.7-4.6-16.5-3.8-.8-.1-10.8-.9-15.7 2.5-5.1 3.6-3.8 6.8-3.7 6.9l.2.4 2.1-1.2.4 1.6 2.4-1.2.7 1.7 2.1-1.1.8 1.2 1.8-.8.7 1.3 2.2-1.1 1.4 1.1 1.3-1.3 1.2 1.6 1.3-1.3 1.3 1.6 1.3-1.6 1.3 1.6 1-1.5 1.1 1.4.2-.6c.2-.6.5-1.2.7-1.4.3.4.9 1.2 1.1 1.5l.3.4 1.5-1.9 1 1.6 1.1-1.9c.6.7.8.7 1 .7.2 0 .3-.2.4-.3l.4-1.2 2.1 1-.1-1.8 2 1.8.2-.4c-.2-.2.8-2.5-.6-5.5zm-.2 4.6-2.3-2.1c-.6-1.6-2-3-3.3-4.1-.2-.2-.6.1-.3.3 1.7 1.7 3.4 3.3 3.5 5.8l-1.6-.8-.5 1.6c-.2-.2-.3-.4-.5-.6l-.3-.5-1 1.8-.8-1.5-1.6 2c-.3-.4-.8-1.1-1-1.3-.1-.1-.3-.2-.5-.2-.3.1-.7.5-1.1 1.3l-.9-1.2-1 1.6-1.3-1.5-1.3 1.6-1.3-1.5-1.3 1.3-1.2-1.6-1.5 1.5-1.2-1-1.9 1-.6-1.3-1.8.8-.7-1c.8-1.9 1.9-3.4 3.2-4.9.1-.1 0-.3-.2-.2-1.8 1.2-3.1 3.1-3.6 5.2l-1.5.8-.5-1.3c.6-1.2 1.2-2.3 2.2-3.3 1-1.1 2.2-1.7 3.4-2.5.2-.1.1-.4-.2-.4-2.6.7-5.2 3.4-5.9 6l-2 1-.4-1.6c.1 0 .1 0 .2-.1.6-.8 1.3-1.6 2-2.3s1.6-1.2 2.4-1.8c.2-.1.1-.4-.2-.4-1.9.8-3.6 2.5-4.7 4.3-.1.1 0 .2 0 .2l-2.1 1.2c-.1-.9 0-3.1 3.6-5.6 4.7-3.4 15.1-2.4 15.2-2.4 8.3-.7 14.3.6 15.8 3.4 1 2 .8 3.5.6 4.3zm-19.6-6.4c.2-.2-.1-.5-.3-.4-2 1.5-3.6 3.9-3.5 6.5 0 .2.3.2.3 0 .7-2.3 1.6-4.4 3.5-6.1zm.5 1c-1 1.5-1.8 3.3-1.7 5.2 0 .2.3.3.4.1.3-1.8.7-3.4 1.6-5 .2-.3-.2-.5-.3-.3zm3.3-1.1c.1 2.3-.4 4.8-.2 7.1 0 .2.3.2.3.1.7-2.2.5-4.9.3-7.1 0-.3-.4-.3-.4-.1zm1.8.7c.4 1 .7 2.1.8 3.2.1 1-.2 2-.2 2.9 0 .2.3.3.4.1 1-2 .4-4.6-.6-6.4-.2-.1-.5 0-.4.2zm2.9-.5c.8 1 1.4 2.1 1.9 3.2.4 1.1.6 2.2 1 3.2.1.2.3.2.4-.1.2-2.4-1.3-5-2.9-6.7-.3-.1-.6.2-.4.4zm2.7-.3c-.2-.1-.4.2-.2.3 1.9 1.5 2.8 3.3 3.6 5.6.1.2.4.2.4-.1 0-2.3-1.8-4.7-3.8-5.8z" fill="#000000" stroke-width="none" opacity="1"></path></g></g><g id="svga-group-nose-single-move" transform="matrix(1,0,0,1,0,0)"><g id="svga-group-nose-single"><path id="SvgjsPath4439" d="M107.56 107.36c.81-.3 1.49-2.07 1.08-3.48-.41-1.41-3.64-4.3-7.2-4.88-3.56-.58-10.1 0-11.84 3.15-1.74 3.15-.33 5.38 1.08 5.38s4.47-1.16 4.47-1.16 2.15 1.74 3.56 1.74 4.72-1.66 4.72-1.66 2.31 1.57 4.13.91z" fill="#ffffff" stroke-width="none" opacity="1"></path><path id="SvgjsPath4440" d="M107.91 105.78c-.8-.68-2.14-.72-3.09-.49-2.6.6-4.35 2.98-7.21 1.73-1.73-.76-3.19-2.15-5.16-2.3-.92-.07-2.33.14-2.9.97-.52.75-.06 1.53.68 1.91 1.31.67 3.15-.13 4.41-.74 1.35.73 2.59 1.71 4.16 1.92 1.54.21 2.86-.48 4.17-1.19.24-.13.47-.25.7-.37 1.15.55 3.04 1.28 4.18.46.71-.51.7-1.35.06-1.9zm-17.14.61c.31-.46 1.31-.38 2-.23-.11.03-.22.07-.33.1-.19.05-1.64.09-1.67.13z" fill="#000000" stroke-width="none" opacity="1"></path><path id="SvgjsPath4441" d="M95.63 96.37c-.15-7.79.12-15.57.8-23.33.08-.87-1.28-.86-1.36 0-.68 7.76-.95 15.54-.8 23.33.02.87 1.38.88 1.36 0z" fill="#000000" stroke-width="none" opacity="1"></path></g></g><g id="svga-group-hair-front"><path id="SvgjsPath6326" d="M73.2 48.8s14.8-.7 23-2.9c0 0 22.1 2 28.9 1.3 0 0 6 10 10.1 11.3 0 0 1.6 8.2 3.6 10.4 0 0 1.6 9.3 2.9 12s-.7 14-.7 14 7.8-12.7 7.2-19.1c0 0 4 6.2 9.2 8.4 0 0-7.2-15.5-7.6-20.7 0 0 7.6 2 11.6 5.3 0 0-8.1-15.5-13-18.9 0 0 3.6-.9 8.3-3.3 0 0-9.6-2.7-12.1-4.9 0 0 7.6-3.6 10.3-8.4 0 0-9.2 1.1-11.2.4 0 0 3.4-8.7 3.8-14.4 0 0-9.2 5.8-14.8 4.4 0 0 4.3-5.1 5.1-9.1 0 0-15.2 5.6-26.8 4.7 0 0 3.6-5.8 4.3-10.2 0 0-10.7 7.3-16.6 8.2-5.8 1.1-14.8 3.7-14.8 3.7s2.5-5.3 1.8-10.4c0 0-11.9 14.2-15 16.4s-9.8 6.7-9.8 6.7-1.1-9.3-5.4-13.8c0 0 .4 16.7-1.3 20.2 0 0-5.4-4.7-11.2-6 0 0 6.7 9.3 8.3 12.9 0 0-4.5 8-10.5 10l7.8 1.3s-3.8 11.1-5.8 15.1-4.3 9.1-7.6 12.4l13.2-7.1s-6.3 15.5-5.8 22.9L50 94s1.6 10.4 4.5 12c0 0 2.2-18 4.3-21.1 2-3.1 5.8-27.3 5.8-27.3s1.8 7.6 2 11.3c-.1.1 7-12.6 6.6-20.1z" fill="#ffffff" stroke-width="none" opacity="1"></path><path id="SvgjsPath6327" d="M162.2 68.5c-.3-.6-6.8-13.1-11.8-18 1.5-.5 3.9-1.4 6.7-2.9.4-.2.6-.6.5-1s-.3-.7-.7-.9c-2.2-.6-7.6-2.3-10.4-3.8 2.4-1.3 7.1-4.3 9.2-8.1.2-.3.2-.7 0-1s-.6-.5-.9-.4c-2.9.3-7.5.8-9.7.6.9-2.6 3.1-8.9 3.4-13.6 0-.4-.2-.7-.5-.9-.3-.2-.7-.2-1 0-.1 0-7.2 4.5-12.4 4.5 1.4-1.9 3.6-5.2 4.2-8.1.1-.4 0-.7-.3-1-.3-.2-.7-.3-1-.2-.1.1-13.8 5-24.8 4.7 1.1-2 3.1-5.9 3.6-9.2.1-.4-.1-.8-.5-1-.3-.2-.8-.2-1.1 0-.1.1-10.6 7.2-16.1 8.1-4.2.6-10 2.2-13 3 .7-2.1 1.6-5.6 1.1-9.1-.1-.4-.3-.7-.7-.8-.4-.1-.8 0-1 .3-4.1 4.9-12.4 14.6-14.8 16.3-2.2 1.6-6.4 4.4-8.5 5.8-.5-2.9-2-9.2-5.4-12.8-.3-.3-.7-.4-1.1-.2-.4.2-.6.5-.6.9.1 4.1.1 14.4-.8 18.5-1.9-1.5-6-4.3-10.5-5.3-.4-.1-.8.1-1.1.4-.2.3-.2.8 0 1.1.1.1 6.1 8.5 8 12.2-1 1.6-4.9 7.5-9.7 9.1-.4.1-.7.6-.7 1 0 .5.4.8.8.9l6.7 1.1c-1 2.9-3.8 10.7-5.4 13.9-.3.6-.6 1.1-.9 1.7-1.8 3.6-3.8 7.7-6.6 10.4-.4.4-.4.9-.1 1.3s.8.5 1.3.3l10.8-5.8c-1.8 4.8-5.3 15-4.9 20.8 0 .4.3.7.6.9.4.1.8 0 1.1-.2l6-6.2c.6 3.4 2.1 9.4 4.7 10.8.1.1.3.1.5.1s.3 0 .5-.1c.3-.2.5-.4.5-.8.9-7.1 2.7-18.5 4.1-20.7 1.5-2.4 3.8-15 5.1-22.5.4 2.1.8 4.4.9 6 0 .4.3.8.8.9.4.1.9-.1 1.1-.5.3-.5 6.7-12 6.9-19.8 3.4-.2 14.9-.9 22.1-2.8 2.2.2 21.2 1.9 28.2 1.4 1.3 2.2 6 9.2 9.7 11 .4 1.9 1.7 7.9 3.5 10.2.3 1.6 1.7 9.5 3 12 .9 1.7 0 9.1-.8 13.4-.1.5.2.9.6 1.1.4.2 1 0 1.2-.4.3-.5 6.1-9.9 7.2-16.8 1.7 2.1 4.6 5.1 7.9 6.5.4.2.8.1 1.1-.2.3-.3.4-.7.2-1.1-.1-.1-5.9-12.9-7.3-18.8 2.4.7 7 2.4 9.7 4.7.4.3.9.3 1.3 0s.5-.4.3-.9zm-12.3-5.8c-.3-.1-.6 0-.9.2s-.4.5-.4.9c.3 3.9 4.3 13.4 6.4 18.1-3.5-2.6-6.1-6.5-6.2-6.6-.3-.4-.7-.6-1.2-.4-.4.2-.7.6-.7 1 .4 3.6-2.2 9.6-4.4 13.8.4-3.5.6-7.6-.2-9.2-1-2.1-2.4-9.2-2.8-11.7 0-.2-.1-.4-.2-.5-1.5-1.6-2.9-7.7-3.3-10-.1-.4-.3-.6-.7-.8-3-1-7.8-8.1-9.5-10.8 4.6-1.9 8.7-4.8 12-8.6.3-.4.1-.8-.2-1-.1-.3-.3-.5-.7-.4-3.6 1.4-7.2 2.3-11 2.7 4-3.6 7.1-8 9.3-13 .2-.6-.3-1.1-.7-.9-.2-.1-.5-.2-.8 0-3.6 2.8-7.5 5-11.9 6.5-.8.3-.4 1.5.3 1.2 4.1-1.4 7.8-3.4 11.3-6-2.3 4.6-5.4 8.7-9.3 12.1-.2.2-.2.4-.2.6-.2.4 0 .9.5.9 3.9-.3 7.6-1.1 11.3-2.3-3.2 3.3-7.1 5.9-11.5 7.5-.1.1-.2.1-.3.2-5.9.4-20.5-.8-25.9-1.2 6.7-2.8 12.6-7 17.4-12.7.1-.1.1-.2.1-.4.3-.5-.5-1.2-1-.7-3.7 3.4-10.4 3.5-15.1 4.4-.8.2-.5 1.4.3 1.2 3.7-.7 8.3-1 12.1-2.6-5.1 5.1-11.3 8.9-18.3 11-.1 0-.1.1-.2.1-8.3 1.7-20.4 2.3-20.6 2.3-.3 0-.5.1-.7.3s-.3.5-.3.7c.3 5.1-3.1 12.7-5.1 16.8-.6-3.7-1.6-8-1.6-8.2-.1-.5-.5-.8-1-.8s-.9.4-.9.8c-1.5 9.6-4.3 24.8-5.7 26.9-1.7 2.6-3.4 14.3-4.1 19.3-1.2-2.3-2.3-6.7-2.8-9.8-.1-.4-.3-.7-.7-.8h-.3c-.3 0-.5.1-.7.3l-5.6 5.7c.7-7.6 5.6-19.8 5.7-20 .2-.4.1-.8-.3-1.1-.3-.3-.8-.3-1.1-.1l-8.9 4.8c1.5-2.3 2.7-4.8 3.9-7.1.3-.6.6-1.2.9-1.7 2-4 5.7-14.8 5.9-15.2.1-.3.1-.6-.1-.8-.1-.3-.4-.4-.7-.5l-4.5-.6c4.8-3.1 8-8.8 8.2-9 .2-.3.2-.6 0-.9-1.1-2.5-4.5-7.6-6.7-10.6 4.4 1.8 7.9 4.9 8 4.9.2.2.5.3.8.2s.6-.3.7-.5c1.4-2.8 1.5-12.4 1.5-17.5 2.5 4.5 3.3 10.7 3.3 10.8 0 .3.3.6.6.8.3.1.7.1 1-.1.1 0 6.8-4.5 9.9-6.7 2.5-1.8 10.1-10.6 13.5-14.6-.2 3.9-1.8 7.4-1.8 7.4-.2.4-.1.8.2 1.1.3.3.7.4 1 .3.1 0 8.9-2.7 14.6-3.5 4.4-.7 11.3-4.8 14.8-7-1.2 3.7-3.5 7.4-3.5 7.5-.2.3-.2.7 0 1s.5.5.8.5c9.4.7 20.8-2.6 25.3-4.1-1.4 3.3-4.3 6.8-4.3 6.9-.2.3-.3.6-.2 1s.4.6.7.7c4.4 1.1 10.7-1.9 13.8-3.5-.9 5.4-3.5 12.1-3.5 12.2-.1.3-.1.5 0 .8s.3.4.6.5c1.6.5 6.4.1 9.4-.2-3.1 3.7-8.6 6.3-8.6 6.3-.3.1-.5.4-.6.8 0 .3.1.7.3.9 1.8 1.6 6.9 3.4 10 4.4-3.4 1.5-5.7 2.1-5.8 2.1-.4.1-.7.4-.7.8-.1.4.1.8.4 1 3.3 2.2 8.1 10.4 10.8 15.1-3.9-2.3-8.3-3.5-8.6-3.6zM91.4 23.9c-.1 0-.1.1-.2.1-7.9 2.2-17.1 6.5-20.8 14.3-.3.7.7 1.4 1.1.6 3.1-6.6 10.4-10.6 17.3-12.9-1.9 1.8-3.5 3.9-4.7 6.3-.4.7.7 1.3 1.1.6 1.6-3.1 3.8-5.8 6.6-7.9h.1c.5-.1.5-.7.3-1-.1-.2-.5-.4-.8-.1zM59.6 51c-1.4 5.4-3 10.7-6.7 14.8 1.1-3.9 1.2-7.9.3-11.9-.2-.9-1.4-.5-1.2.3 1 4.5.7 8.9-.9 13.2-.1.2 0 .4.1.6.2.3.7.6 1 .2 5.1-4.3 7-10.6 8.6-16.8.2-.9-1-1.2-1.2-.4z" fill="#000000" stroke-width="none" opacity="1"></path></g><g id="svga-group-glasses-single-move" transform="matrix(1,0,0,1,0,0)"><g id="svga-group-glasses-single"></g></g></g></g></g><rect id="svga-credit-rect" width="200" height="15" x="0" y="185" fill="#ecf0f1" opacity="0.5" style="display: none;"></rect><text id="svga-credit-text" font-family="Avenir Next, Roboto, Helvetica, Arial, sans-serif" font-size="10px" text-anchor="start" font-weight="400" size="10px" anchor="start" weight="400" fill="#333333" x="34.02062225341797" y="182.60824704170227" style="display: none;"><tspan id="SvgjsTspan3640" dy="13" x="34.02062225341797">Created on AvatarMaker.com</tspan></text></g><defs id="SvgjsDefs3587"></defs></svg>