<svg xmlns="http://www.w3.org/2000/svg" version="1.1" width="600px" height="600px" viewBox="0 0 200 200" style="overflow:hidden!important;"><g id="svga-group-wrapper"><g id="svga-group-backs-single"></g><g id="svga-group-humanwrap-move" transform="matrix(1,0,0,1,0,0)"><g id="svga-group-humanwrap"><g id="svga-group-hair-back-move" transform="matrix(1,0,0,1,0,0)"><g id="svga-group-hair-back"><path id="SvgjsPath5091" d="M63.2 87.4s1.7 33.2 1 54.5c-.7 21.3-2.3 31.2-7.3 39.9-5 8.6-11.3 16.9-11.3 20.6s110.3-.7 110.3-.7-12.6-7.3-15.6-29.6-.7-84-.3-90.7-66.5-43.8-76.8 6z" fill="#000000" stroke-width="none" opacity="1"></path><path id="SvgjsPath5092" d="M70.7 107c-.1-.8-1.3-.8-1.2 0 3.1 30.4 6 64.9-15.6 89.7-.5.6.3 1.5.9.9 21.7-25.1 19-59.8 15.9-90.6zm5.8 13.4c-.1-.8-1.3-.5-1.2.3 0 .3.1.6.1.9-.3 0-.7.2-.7.6 1.7 29.5 3 61-13.7 87-.4.7.7 1.3 1.1.6 15.3-23.8 15.6-52.3 14.2-79.7 2 20.3.6 40.6-4 60.5-.2.8 1 1.1 1.2.3 5.6-23.1 6.5-46.9 3-70.5zm3.7 10.3c2.7 21.8.9 43.8-5.3 64.8-.2.8 1 1.1 1.2.3 6.2-21.2 8-43.2 5.3-65.2-.1-.7-1.3-.7-1.2.1zm6.6 6.8c.3 12.1-.4 24.1-2 36-.1.8 1.2.8 1.2 0 1.6-11.9 2.2-23.9 2-36 0-.8-1.2-.8-1.2 0zm31.6-17c.1-.8-1.2-.8-1.2 0-2.4 23.4-.3 46.9 6.4 69.5.2.8 1.4.4 1.2-.3-6.7-22.5-8.8-45.9-6.4-69.2zm28.5 80.6c-8.3-14.8-8.7-32.1-9.3-48.6-.6-17.3-.6-34.7.1-52 0-.8-1.2-.8-1.2 0-.7 18.7-.7 37.3.1 56 .7 15.5 1.5 31.5 9.3 45.3.3.6 1.3 0 1-.7zm-12.4-94.6c.1-.8-1.2-.8-1.2 0-2.8 32.2-5.4 65.6 6.8 96.3.3.7 1.5.4 1.2-.3-12.2-30.7-9.6-63.9-6.8-96zm-6.5 10.2c.1-.8-1.2-.8-1.2 0-2.1 27.9 1.1 55.8 9.3 82.5.2.8 1.4.4 1.2-.3-8.3-26.6-11.4-54.4-9.3-82.2zm-2.9 5c.1-.8-1.2-.8-1.2 0-2.7 28.2.9 56.5 10.7 83 .3.8 1.5.4 1.2-.3-9.8-26.5-13.4-54.6-10.7-82.7zm-56.8-16.6c-.1-.8-1.3-.8-1.2 0C69 139.2 70.5 178 45 204.5c-.6.6.3 1.5.9.9 25.7-26.8 24.4-65.8 22.4-100.3z" fill="#ffffff" stroke-width="none" opacity="1"></path></g></g><g id="svga-group-humanbody-back"><path id="SvgjsPath3435" d="M86.5 107c0 18.8 2.7 50.3-8.1 58s-31.8 13.9-36.7 24.4-3.6 29.4-3.6 29.4h124.1s.6-23.1-4.2-30.4c-6.6-10.1-28.5-17.7-36.5-22.9-8.1-5.2-10.9-32.2-10.9-58.8l-24.1.3z" fill="#ffffff" stroke-width="none" opacity="1"></path></g><g id="svga-group-chinshadow-single"></g><g id="svga-group-humanbody-front"><path id="SvgjsPath3436" d="M163.4 220.1H37.2l-.3-.9c-.1-.5-1.3-19.7 3.6-30.3 3.4-7.3 13.6-12.4 23.5-17.4 5.1-2.5 9.9-5 13.6-7.5 8.6-6 8.1-29.8 7.7-47.1-.1-3.5-.1-6.8-.1-9.8v-1.3l26.7-.4v1.3c0 32 3.8 53.5 10.3 57.7 2.4 1.6 6 3.3 10.2 5.4 9.7 4.7 21.9 10.6 26.7 18 5 7.6 4.4 30.9 4.4 31.2l-.1 1.1zm-124.1-2.6h121.6c-.1-2.4-.6-23.2-4-28.4-4.4-6.7-16.2-12.5-25.6-17-4.3-2.1-8-3.9-10.5-5.5-9.8-6.3-11.4-38.8-11.5-58.6l-21.5.4c0 2.6.1 5.5.1 8.5.4 18.9.9 42.4-8.8 49.3-3.8 2.7-8.7 5.1-13.9 7.7-9.5 4.8-19.4 9.7-22.3 16.1-3.3 6.9-3.7 25.9-3.6 27.5z" fill="#000000" stroke-width="none" opacity="1"></path><path id="SvgjsPath3437" d="M76.8 173.7c4.8 2.3 10.4 3.9 15.7 2.9.4-.1.4-.7 0-.8-5.1-.9-10.2-1.4-15.2-3.2-.6-.2-1.1.8-.5 1.1zm31.5 2.4c2.4.3 4.9-.4 7.1-1.2 2.1-.8 4.3-1.7 5.8-3.4.5-.5-.1-1.2-.7-.9-2.1.9-3.9 2.3-6.1 3-2 .7-4.1 1-6.2 1.5-.6.1-.4.9.1 1z" fill="#000000" stroke-width="none" opacity="1"></path></g><g id="svga-group-clothes-single"><path id="SvgjsPath5265" d="M83.8 152.6s-3.1 3.3-4.9 5.2-2.5 3.6-2.5 3.6v2.2s-6.5 5.1-11.4 6.3c-4.9 1.3-20.3 10.3-20.3 10.3s-8.9 8.4-8.8 22.5c0 .6 0 16.2.1 16.8h127.9s.1-15.6.1-16.7c.1-3.4-.4-11.4-5-17-6-7.2-34.2-19.9-34.6-21-.4-1.1-.5-3.6-3.4-6.5s-5.1-6.7-6-7.1c0 0 1.6 6 1.6 9.8s.5 6.5-1.6 7.6-9.8 4.5-10.7 5.8-1.1 4.5-2.2 7.2c0 0-2.9-6.5-5.4-7.4s-5.6-.4-7.4-2.2-5.3-9.1-5.3-12c0-2.9-.2-7.4-.2-7.4z" fill="#ffffff" stroke-width="none" opacity="1"></path><path id="SvgjsPath5266" d="M38.8 204.8c-.1-.1-.2.1-.1.2 4 1.9 8.3 3.8 12.7 4.8.1 0 .1-.1 0-.1-4.2-1.7-8.5-3.1-12.6-4.9zm126.1-2.9c-.1-3.9-.8-11.3-5.2-16.6-4.2-5.1-18.4-12.4-27.7-17.3-2.9-1.5-5.8-3-6.6-3.6-.1-.5-.2-1-.2-1.4h-.2c-.4-1.4-1.2-3.3-3.3-5.4-1.4-1.4-2.7-3.1-3.8-4.5-1.3-1.7-1.9-2.5-2.6-2.8-.3-.1-.8-.1-1 .2-.3.2-.4.6-.3 1 0 .1 1.6 5.9 1.6 9.5v1.9c.1 2.8.1 4.2-1.1 4.8l-1.8.9c-2.1 1-3.8 1.9-5.2 2.6-.2 0-.3.1-.4.1v.1c-2 1.1-3.3 1.9-3.7 2.5-.6.8-.9 2.2-1.2 3.7-.1.5-.2.9-.3 1.4-1.2-2.1-3-5-4.9-5.7-1.1-.4-2.2-.5-3.2-.7-1.6-.2-3-.4-3.8-1.3-1.7-1.7-5-8.9-5-11.4 0-2.9-.2-7.4-.2-7.5 0-.4-.3-.8-.7-.9-.4-.1-.8 0-1.1.2 0 0-3.1 3.3-4.9 5.3-1.9 2.1-2.7 3.8-2.7 3.9-.1.1-.1.3-.1.4v1.7c-1.4 1.1-6.7 4.8-10.7 5.9-5 1.3-19.9 10.1-20.5 10.4-.1 0-.1.1-.2.1-.4.4-9.1 8.8-9.1 23 0 .3.2 17.7.2 18h130v-.1c.1-1.2-.1-18-.1-18.4zm-10.8-19c1.1.8 2 1.5 2.8 2.2-.8-.5-1.6-.9-2.4-1.3-.2-.1-.3.2-.1.3 1.1.6 2.1 1.3 3.3 1.7.2.2.4.4.6.7.4.4.7.9 1 1.3-1.9-1.1-3.8-2-5.6-3.1 0-.5.2-1.1.4-1.8zm-.7 2.3c2.1 1.2 4.1 2.4 6.3 3.5.6.9 1 1.9 1.4 2.9-2.7-1.5-5.4-3-8-4.7.1-.6.2-1.1.3-1.7zm-.4 2.1c2.6 1.9 5.3 3.6 8.3 4.9.3.9.6 1.8.8 2.6-3.2-1.5-6.4-2.9-9.5-4.7.1-1 .2-1.9.4-2.8zm-.5 3.2c2.9 1.9 6.1 3.6 9.4 4.5.1 0 .1 0 .1-.1.6 2.5.8 4.8.8 6.5v5.3c-2.2-.9-10.4-4.5-11.2-4.7 0-1 0-2.1.1-3.4 2.5 1.4 5.1 2.8 7.9 3.7.2.1.3-.2.1-.3-2.7-1.3-5.4-2.5-8-3.8 0-1 .1-2 .1-2.9 2.9 2.1 6.2 3.9 9.6 4.9.2.1.3-.2.1-.3-3.4-1.4-6.6-2.9-9.6-5h-.1c.1-.6.1-1.1.2-1.6 0-.2.1-.5.1-.8 3.2 1.8 6.5 3.7 9.8 5.2.2.1.4-.2.2-.3-3.2-2-6.6-3.7-9.9-5.4.1-.4.1-.8.2-1.2.1 0 .1-.1.1-.3zm-38.9-20.1c.7-.4 1.4-.6 1.8-.9 2.4-1.2 2.3-3.7 2.2-6.6V161c0-1.8-.3-4.1-.7-6 .9 1.3 2.1 2.7 3.4 4 2.2 2.2 2.7 4.1 3 5.4.1.3.1.6.2.8 0 .1 0 .1.1.1.1.5.1 1.1.2 1.7.2 1.8.5 3.9.9 5.9.5 2.5 1.6 7.7 2.2 10.6-1.7-.8-4.4-2.3-6.3-4.1-1.9-1.8-3.4-3.5-4.5-4.8-.9-1-1.6-1.8-2.1-2.3-.5-.4-1.3-.8-2.1-.9.5-.4 1.2-.7 1.7-1zm-.6 4.8c-.2.2-.5.4-.8.6-.1-.8-.3-1.5-.3-2.2.2.1.4.2.5.3l.4.4c.1.3.2.6.2.9zm-1.5-1.8c0 .9.1 1.8.4 2.6-.2.2-.5.3-.7.4 0-1.1-.3-2.1-.5-3.2.3.1.6.1.8.2zm-1.1-.2c.1 1.1.2 2.4.6 3.4-.3.2-.7.4-1 .6 0-1.4-.2-2.7-.4-4.1.2 0 .5 0 .8.1zm-2.2-.1h.9c.1 1.4.2 2.9.5 4.2-.5.2-.9.4-1.4.6.1-1.4-.2-2.9-.3-4.3 0-.2-.4-.2-.4 0 .1.7.1 1.5.1 2.3-.2-.3-.5-.6-.9-.6-.2 0-.4.1-.5.1-.1-.4-.1-.8-.2-1.1.5-.3 1.3-.7 2.2-1.2zm-.3 5c-.4.2-.9.3-1.3.4 0-.3 0-.6-.1-1h.2c.5 0 .9-.3 1-.7 0 .5.1.9.2 1.3zm-2.8-3c.1-.1.3-.3.6-.5 0 .4.1.8.1 1.2-.2.2-.2.4-.2.7 0 .4.2.6.4.8.1.4.1.9.2 1.3l-1.2.3c0-.5-.1-.9-.2-1.4s-.1-.9-.3-1.4c.3-.4.4-.8.6-1zm-.9 3c.1-.3.1-.6.2-.8 0 .1 0 .2.1.3.1.5.2 1 .3 1.4-.3.1-.6.1-.8.2 0-.4.1-.8.2-1.1zm-5.8-.8c.2.6.3 1.1.6 1.7h-1.1c-.1-1-.4-2.1-.7-3.1.4.3.8.8 1.2 1.4zm-2.1-2.1c.1 0 .2.1.4.2.2 1.1.4 2.3.7 3.4-.3 0-.6 0-.9-.1-.2-1.2-.5-2.5-.7-3.7.1.1.3.2.5.2zm-1-.2c.1 1.2.3 2.6.7 3.8-.3 0-.6-.1-.8-.1-.1-.5-.3-1-.4-1.5-.2-.8-.2-1.5-.3-2.3.2 0 .5 0 .8.1zm-1.8-.3c.2 0 .3 0 .5.1 0 1.2.1 2.6.6 3.8-.5-.1-.9-.2-1.4-.3-.2-1.2-.4-2.4-.4-3.6.2-.1.5 0 .7 0zm-1.2-.2c-.1 1.2 0 2.5.5 3.6-.4-.1-.9-.2-1.3-.4 0-1.2-.1-2.3-.3-3.5.4.2.7.3 1.1.3zm-2.3-.6c.3.1.5.2.8.3.1 1.2.2 2.4.5 3.6l-.9-.3c0-1.1-.3-2.3-.5-3.4 0-.2.1-.2.1-.2zm-.4.5c.1 1 .2 2 .6 2.9l-.9-.3c0-.6-.1-1.3-.2-1.9.1-.2.3-.5.5-.7zm-.8 2.5c-.3-.1-.7-.3-1-.4.3-.3.6-.6.8-.9 0 .4.1.8.2 1.3zm-11-13v-2.6h-.2c.4-.6 1-1.6 2-2.7.9-1 2.2-2.4 3.2-3.5.1 1.5.1 3.5.1 5 0 3.1 3.3 10.5 5.4 12.7-1 1.1-3.3 3.9-5.1 5.6-1.5 1.4-5.2 4.2-7.6 6 .6-3.3 1.6-9.1 1.9-11.8.4-2.6.4-6.2.3-8.7zm-30.4 16c.2.5.5 1.3.8 2.2-.7-.5-1.5-.9-2.2-1.4.3-.2.8-.5 1.4-.8zm-2.1 1.2c.1 0 .2-.1.3-.1 1 .6 1.9 1.3 2.9 1.9.2.7.4 1.5.6 2.4-1.6-1-3.3-1.9-5-2.8.6-.8 1-1.2 1.2-1.4zm-1.5 1.7c1.8 1.1 3.6 2.2 5.4 3.1.2.8.4 1.8.6 2.8-2.5-1.3-4.9-2.6-7.2-4.2.5-.7.9-1.3 1.2-1.7zm-1.4 2c2.3 1.8 4.9 3.4 7.6 4.5.1.4.2.9.2 1.3.1.5.2.9.2 1.4-3.3-1.5-6.4-2.9-9.4-4.9.5-.9.9-1.7 1.4-2.3zm-5 12.3c4 2.4 8.1 4.4 12.4 5.9.2.1.3-.2.1-.3-4.2-1.8-8.3-3.6-12.4-5.7-.1 0-.2 0-.2.1.2-1 .4-2 .7-2.9 3.9 2.5 8.1 4.7 12.5 6.2.2.1.3-.3.2-.4-4.2-1.9-8.4-3.9-12.5-6.2.7-2.4 1.6-4.5 2.6-6.3 2.9 2.1 6.2 4.2 9.8 5.1.2 1.1.3 2.2.5 3.3 0 0 0-.1-.1-.1-3.9-1.5-7.7-2.9-11.4-5-.1-.1-.2.1-.1.2 3.4 2.3 7.3 4.3 11.4 5.1.1 0 .2 0 .2-.1.3 2.7.5 5.1.6 6.7v2.6c-3.4-1.3-11.7-4.5-14.5-6 0-.9.1-1.5.2-2.2zm-.3 2.4c2.4 1.5 11 4.9 14.5 5.9v1.3c-4.5-1.1-13.3-5-14.7-5.5.1-.6.1-1.1.2-1.7zm-.2 19.1v-2.4c1.7 1 3.5 1.9 5.4 2.4h-5.4zm6.6 0c-2.2-.9-4.5-1.7-6.6-2.8v-2.2c3.3 2.1 7 4 10.8 4.8.1 0 .2-.2.1-.2-3.7-1.6-7.4-3-10.9-4.9v-1.8c3.5 2.3 7.3 4.3 11.3 5.3.1 0 .2-.1 0-.2-3.9-1.6-7.7-3.2-11.4-5.4v-2c4.3 2.6 8.9 5 13.7 6.5.1 0 .2-.1.1-.1-4.6-2.2-9.2-4.3-13.7-6.7v-2.6c4 2.7 9 4.6 13.6 6.1.1 0 .1-.1.1-.1-4.5-2.2-9.2-3.9-13.6-6.3v-4.1c1 .5 10 4.3 14.7 5.3v11.5l-8.2-.1zm10.1 0v-16.1c-.2-2.6-.6-7.5-1.4-12.3-1.1-6.3-2.3-9.6-3-11.3 4.9-2.8 12.9-7.1 16-7.9 3.8-1 8.5-4.2 10.7-5.7 0 2.3 0 5.1-.2 7-.4 3.8-2.3 14.1-2.3 14.2-.1.4.1.8.4 1 .2.1.3.1.5.1s.4-.1.6-.2c.3-.2 7.4-5.4 9.8-7.7.9-.8 1.9-1.9 2.8-2.9 2.3 1.3 4.9 2.1 7.5 2.5.1.1.2.1.2 0 .3.1.7.1 1 .1.1.1.1.3.2.4.1.1.3 0 .2-.1 0-.1 0-.2-.1-.3.3 0 .7 0 1 .1 0 .1 0 .1.1.2s.3.1.3 0v-.1h1.9c.4.8.8 1.6 1.2 2.3-.1.5-.5 1.7-1.6 2.8-.3.3-.6.6-.9.8-1 .9-1.7 1.7-1.3 3.8.3 1.6.7 9.3.9 13.9 0 .1 1.6 13 1.8 15.3l-46.3.1zm51.4 0h-3c0-.2-1.7-15.4-1.7-15.6-.2-3.3-.6-12.1-.9-14-.2-1.1-.1-1.2.7-1.9.3-.2.6-.6 1-1 1.4-1.5 2-3.1 2.1-4.1.3-.7.5-1.5.7-2.3 1.6 0 3.2-.3 4.7-.9-1.2 3.7-4.4 6.4-5.1 10.3-.8 4.7 1.5 9.4 1.6 14.1-.1.1-.1 15.2-.1 15.4zm45.1-25.5c-.4 2.6-.4 20.9-.4 25.5h-44v-15.3c-.1-4.3-2.2-8.5-1.8-12.7.5-4.7 4.3-7.5 5.1-12 1.8-.8 3.5-1.9 4.9-3.2.2.2.3.4.5.6 1.2 1.4 2.7 3.1 4.7 4.9 3.4 3.3 8.6 5.2 8.8 5.3.1 0 .2.1.4.1s.5-.1.6-.2c.3-.2.4-.6.3-1 0-.1-1.9-8.9-2.6-12.4-.4-1.9-.6-3.9-.8-5.7 1.1.6 2.8 1.5 5.4 2.8 6.1 3.2 15.1 7.8 21.3 12-1.1 2.9-1.6 6.1-1.9 8.9-.2.8-.3 1.6-.5 2.4zm1.6 22.7c1.9 1 4 2 6.1 2.8h-6.1v-2.8zm7.7 2.8c-2.5-1.1-5.2-1.9-7.7-3.1v-3.1c2.4 1.2 5 2.3 7.6 2.9.1 0 .1-.1 0-.1-2.6-1-5.2-1.9-7.7-3.1v-2.7c3.4 1.7 7 3.3 10.7 4.3.1 0 .2-.1.1-.2-3.6-1.6-7.2-3-10.8-4.5v-3.1c3.4 1.9 7 3.6 10.6 4.8.1 0 .2-.1.1-.2-3.5-1.8-7.2-3.4-10.7-5.1v-2.9c.5.2 8.9 3.7 11.2 4.6v11.4l-3.4.1zm-57.2-29.8c0-.6-.5-1.1-1.1-1.1s-1.1.5-1.1 1.1c0 .6.5 1.1 1.1 1.1s1.1-.5 1.1-1.1zm-.2 11.3c-.6 0-1.1.5-1.1 1.1 0 .6.5 1.1 1.1 1.1s1.1-.5 1.1-1.1c0-.6-.5-1.1-1.1-1.1z" fill="#000000" stroke-width="none" opacity="1"></path></g><g id="svga-group-head" transform="matrix(1,0,0,1,0,0)"><g id="svga-group-ears-left-move" transform="matrix(1,0,0,1,0,0)"><g id="svga-group-ears-left"><path id="SvgjsPath3895" d="M66.8 82.4s-3.6-5.4-5.6-7.8-4.7-5-6.3-1.1c-1.6 3.9-2.5 11.6-1.6 16.9s6.8 11 9.6 11.2c2.8.2 5.7-7.6 5.9-10.3.3-2.8-.6-6.9-2-8.9z" fill="#ffffff" stroke-width="none" opacity="1"></path><path id="SvgjsPath3896" d="M52.2 90.4c-1-5.5.1-13.3 1.6-17.2.2-.6 1-2.4 2.9-2.6 2.1-.2 3.9 1.6 5.5 3.5 2.1 2.4 5.5 7.7 5.7 7.9 1.4 2.1 2.4 6.4 2.1 9.3-.2 2.4-2.4 8.8-5.2 10.6-.6.4-1.3.6-2 .5-3.6-.3-9.7-6.4-10.6-12zm8-15.4c-2.3-2.7-3.1-2.7-3.2-2.7-.1 0-.5.3-1 1.4-1.5 3.7-2.5 11.3-1.6 16.5.9 5.3 6.7 10.3 8.5 10.5 1.4-.2 4.4-6.1 4.7-9.5.2-2.6-.7-6.6-1.9-8.5 0 0-3.5-5.4-5.5-7.7z" fill="#000000" stroke-width="none" opacity="1"></path><path id="SvgjsPath3897" d="M57.9 78c2 1.3 3.6 3.5 4.3 6 0 .2-.2.2-.2.1 0 0 0-.1-.1-.1-.6-.5-1.2-1.1-1.9-1.1-1.1 0-1.1 1.4-.8 2.5.4 1.5 1.1 2.9 1.9 4.2.1.2-.1.3-.2.2-1.2-1.5-3-4.6-2.4-6.6.5-1.7 2-.9 3.1.1-.6-1.3-1.4-2.5-2.4-3.5-1.3-1.3-4.1-3.4-4.9-.9 0 .1-.2.1-.2-.1.1-2.5 2.6-1.7 3.8-.8z" fill="#000000" stroke-width="none" opacity="1"></path><path id="SvgjsPath3898" d="M61.7 92.6c1 2.5-1.2 3-2.5 1.9-2.1-1.7-3.5-5.5-3.5-8.4 0-.2.2-.2.2 0 .2 1.7.5 3.3 1.2 4.8.4.9 1 1.9 1.6 2.7.4.5.9.9 1.5 1.1 1.2 0 1.6-.7 1.3-2 0-.1.1-.2.2-.1z" fill="#000000" stroke-width="none" opacity="1"></path></g></g><g id="svga-group-ears-right-move" transform="matrix(1,0,0,1,0,0)"><g id="svga-group-ears-right"><path id="SvgjsPath3899" d="M133.2 82.4s3.6-5.4 5.6-7.8 4.7-5 6.3-1.1c1.6 3.9 2.5 11.6 1.6 16.9-.9 5.3-6.8 11-9.6 11.2-2.8.2-5.7-7.6-5.9-10.3-.3-2.8.6-6.9 2-8.9z" fill="#ffffff" stroke-width="none" opacity="1"></path><path id="SvgjsPath3900" d="M137.2 102.4c-.7 0-1.4-.1-2-.5-2.8-1.7-5-8.2-5.2-10.6-.3-2.9.7-7.1 2.1-9.3.1-.2 3.6-5.5 5.7-7.9 1.6-1.9 3.4-3.7 5.5-3.5 2 .2 2.7 2 2.9 2.6 1.6 3.9 2.6 11.8 1.6 17.2-.9 5.6-7 11.7-10.6 12zm-3-19.7c-1.2 1.9-2.1 5.8-1.9 8.5.3 3.4 3.2 9.4 4.7 9.5 1.9-.1 7.6-5.2 8.5-10.5.9-5.3-.1-12.8-1.6-16.5-.4-1.1-.9-1.4-1-1.4-.1 0-.9 0-3.2 2.7-1.9 2.3-5.4 7.7-5.5 7.7z" fill="#000000" stroke-width="none" opacity="1"></path><path id="SvgjsPath3901" d="M142.1 78c-2 1.3-3.6 3.5-4.3 6 0 .2.2.2.2.1 0 0 0-.1.1-.1.6-.5 1.2-1.1 1.9-1.1 1.1 0 1.1 1.4.8 2.5-.4 1.5-1.1 2.9-1.9 4.2-.1.2.1.3.2.2 1.2-1.5 3-4.6 2.4-6.6-.5-1.7-2-.9-3.1.1.6-1.3 1.4-2.5 2.4-3.5 1.3-1.3 4.1-3.4 4.9-.9 0 .1.2.1.2-.1-.1-2.5-2.6-1.7-3.8-.8z" fill="#000000" stroke-width="none" opacity="1"></path><path id="SvgjsPath3902" d="M138.3 92.6c-1 2.5 1.2 3 2.5 1.9 2.1-1.7 3.5-5.5 3.5-8.4 0-.2-.2-.2-.2 0-.2 1.7-.5 3.3-1.2 4.8-.4.9-1 1.9-1.6 2.7-.4.5-.9.9-1.5 1.1-1.2 0-1.6-.7-1.3-2 0-.1-.1-.2-.2-.1z" fill="#000000" stroke-width="none" opacity="1"></path></g></g><g id="svga-group-faceshape-wrap"><g id="svga-group-faceshape-single"><path id="SvgjsPath4241" d="M139.4 74.3s.2-8.5-1.2-16.1c-2-10.8-13.3-27.4-37.2-27.4S69.1 43.5 65.5 53c-3 8.1-3 21.3-3 21.3s-1.4 30 .8 33.7c2.3 3.7 11.2 9.7 16.6 20.9 3.2 6.7 4.9 15.4 18.9 14.6s16-1.7 17.2-3.7c1.1-2 6-13.7 9.1-18.3 3.1-4.6 11.2-11.2 13.2-14s1.1-33.2 1.1-33.2z" fill="#ffffff" stroke-width="none" opacity="1"></path><path id="SvgjsPath4242" d="M96.9 144.9c-11.4 0-14.3-6.7-16.9-12.7l-1.2-2.7c-3.5-7.2-8.6-12.3-12.2-15.9-1.9-1.9-3.5-3.5-4.3-4.8-2.4-3.9-1.3-29.3-1-34.5 0-.9 0-13.7 3.1-21.8 5.8-15.5 17.8-23 36.7-23 10.9 0 20.5 3.4 27.7 10 5.5 5 9.6 11.9 10.8 18.5 1.4 7.5 1.2 15.7 1.2 16.4 0 .6.2 7.9.2 15.5-.1 16.3-1.1 17.8-1.6 18.4-.9 1.4-3 3.3-5.3 5.6-2.9 2.8-6.1 5.9-7.8 8.4-2.1 3-5 9.5-7 13.8-1 2.2-1.7 3.7-2.1 4.4-1.5 2.6-3.9 3.5-18.2 4.4h-2.1zM101 32.1c-17.7 0-28.9 7-34.3 21.3-2.9 7.8-2.9 20.8-2.9 20.9v.1c-.7 14.4-.7 30.8.7 33 .7 1.1 2.2 2.6 3.9 4.3 3.8 3.8 9 9 12.7 16.6.4.9.9 1.9 1.3 2.8 2.6 6 5.1 11.7 16.4 11.1 13.9-.8 15.3-1.7 16.1-3.1.3-.6 1.1-2.3 2-4.2 2.1-4.6 5-11 7.2-14.2 1.8-2.7 5.2-5.9 8.2-8.8 2.2-2.1 4.2-4.1 5-5.2 1.1-1.8 1.3-17.9.9-32.4 0-.1.2-8.4-1.2-15.9-1.1-6-4.8-12.4-10-17-6.7-6.1-15.7-9.3-26-9.3z" fill="#000000" stroke-width="none" opacity="1"></path></g></g><g id="svga-group-mouth-single-move" transform="matrix(1,0,0,1,0,0)"><g id="svga-group-mouth-single"><path id="SvgjsPath3377" d="M113.06 120.65c-.29.14-.56.24-.84.34-.01 0-.01-.01-.02-.01-2.76-.78-4.09-3.51-6.88-4.24-2.03-.53-4.09.07-5.57 1.36-.96-1.17-2.54-1.53-4.11-1.13-3.23.82-4.73 4.14-8.26 4.42-.07.01-.11.04-.16.07-.14-.04-.29-.06-.43-.1-.33-.1-.47.37-.14.47.49.15.96.24 1.42.31.03.06.08.11.16.13 2.63.87 4.33 3.03 6.8 4.17 2.02.93 4.33 1.35 6.59 1.22 4.32-.25 8.06-2.62 10.16-5.98.53-.17 1.05-.37 1.56-.61.3-.14.03-.56-.28-.42zm-21.53-.48c1.94-1.45 5.67-4.76 7.9-1.66.02.02.04.02.06.04.07.15.27.25.42.1 2.43-2.33 5.66-1.82 8.07.2 1.11.93 2.12 1.83 3.48 2.37 0 0-.01 0-.01.01l-.01.01c-2.11.55-3.97.14-6.35-.24-.06-.01-.12-.01-.18-.01.11-.14.2-.3.22-.48.02-.13-.04-.26-.19-.3-.13-.03-.31.04-.33.17-.04.27-.22.49-.52.59-.16.01-.32.02-.48.05.42-.49.65-1.08.65-1.72 0-.32-.54-.32-.54 0-.01.7-.32 1.32-.91 1.78-.05.04-.06.09-.07.13-.9.25-1.79.59-2.8.66-1.02.07-1.95-.24-2.87-.53-.65-.49-1.06-1.19-1.12-1.97-.02-.31-.56-.32-.54 0 .04.63.28 1.19.66 1.69-.54-.13-1.09-.21-1.67-.14-.87.11-1.66.53-2.51.72-1.17.26-2.34.26-3.49.09 1.18-.28 2.16-.83 3.13-1.56zm8.09 6.98c-2.63-.23-4.94-1.24-6.96-2.75-1.05-.78-2.02-1.56-3.18-2.13 1.27.02 2.51-.2 3.89-.56.55-.15 1.01-.2 1.44-.19-.21.25-.41.51-.62.76-.21.25.26.5.47.25l.78-.96c.56.09 1.1.26 1.78.47.24.07.47.13.71.19-.38.38-.64.83-.77 1.33-.08.31.45.44.52.13.12-.48.37-.9.75-1.24.04-.04.04-.08.05-.12.25.04.49.06.74.07-.7 1-.92 2.17-.6 3.32.08.31.61.18.52-.13-.31-1.13-.06-2.24.7-3.18.01-.01.01-.01.01-.02.06 0 .12 0 .18-.01 1.03-.08 1.86-.51 2.83-.77.7-.19 1.32-.19 1.92-.11 1.2.51 1.99 1.59 2.03 2.8.01.31.55.32.54 0-.03-.98-.48-1.87-1.22-2.53.48.11.98.23 1.51.3 1.16.15 2.29.08 3.38-.18-2.42 3.52-6.73 5.66-11.4 5.26z" fill="#000000" stroke-width="none" opacity="1"></path></g></g><g id="svga-group-eyes-left-move" transform="matrix(1,0,0,1,0,0)"><g id="svga-group-eyes-left"><g id="svga-group-eyesback-left"></g><g id="svga-group-eyesiriswrapper-left"><g id="svga-group-eyesiriscontrol-left" transform="matrix(1,0,0,1,0,0)"><g id="svga-group-eyesiris-left"><path id="SvgjsPath3452" d="M85 84.8c-1-1.9-3.2-2.7-5.2-2-2.2.8-3.8 3-3.1 5.4.4 1.2 1.5 2.4 2.8 2.7.5.1 1 .1 1.5.1.5.1 1.1 0 1.7-.2 2.4-.9 3.5-3.7 2.3-6z" fill="#ffffff" stroke-width="none" opacity="1"></path><path id="SvgjsPath3453" d="M83.4 85.8c0-.1 0-.1-.1-.1-.6-1.1-2-1.5-3.1-1 .2.2.4.5.6.7.2.3.5 1 .1 1.2-.4.2-1 0-1.3-.2-.2-.1-.3-.3-.5-.5 0 .1-.1.1-.1.2-.1.2-.1.4-.1.6-.2.7 0 1.4.5 1.9.2.2.5.3.8.4.6.3 1.2.4 1.8.1-.1-.1-.2-.2-.2-.4 0-.3.2-.6.5-.7.3-.1.6 0 .7.2.3-.3.5-.7.6-1.1.2-.3.1-.9-.2-1.3zm-2 5.3H81c-.5 0-1 0-1.4-.1-1.3-.3-2.4-1.4-2.9-2.8-.8-2.5.9-4.8 3.1-5.5 2.1-.8 4.4.1 5.4 2 .6 1.1.7 2.5.2 3.7s-1.4 2.1-2.6 2.5c-.5.2-1 .2-1.4.2zm-.4-.3c.6.1 1.1 0 1.6-.2 1.1-.4 2-1.2 2.4-2.4.4-1.1.4-2.3-.2-3.4-.9-1.8-3.1-2.6-5-1.9-2.1.7-3.7 2.9-3 5.2.4 1.3 1.5 2.3 2.7 2.6.5.1 1 .1 1.5.1z" fill="#000000" stroke-width="none" opacity="1"></path></g></g></g><g id="svga-group-eyesfront-left"><path id="SvgjsPath4604" d="M81 74.4c-6.9 0-12.5 5.6-12.5 12.5S74.1 99.4 81 99.4s12.5-5.6 12.5-12.5S87.9 74.4 81 74.4zm5.6 17.4c-1.6 1.4-4 2.8-7.3 2.7-3.2-.2-6.3-4-6.7-6 0 0 2.1-2.8 3.4-3.7 1.3-.9 2.5-2.9 5.2-2.8 2.7 0 5.3.5 7.1 4.1 0-.2-.1 4.3-1.7 5.7z" fill="#ffffff" stroke-width="none" opacity="1"></path><path id="SvgjsPath4605" d="m69 85.6 1.9.8c-.8 1.4-1.5 2.8-1.2 3.4.1.2.3.3.5.3.5 0 1.1-.4 2.1-1.3.2.7.5 1.4.9 2.1L71 92.1c-.2.1-.3.4-.2.6.1.1.2.2.4.2.1 0 .2 0 .2-.1l2.3-1.3c.3.4.6.8 1 1.1l-1.6 1.6c-.2.2-.2.5 0 .6.1.1.2.1.3.1.1 0 .2 0 .3-.1l1.7-1.6 1.5.9c.2.1.4.2.7.2l-.6 1.5c-.1.2 0 .5.2.6h.2c.2 0 .3-.1.4-.3l.6-1.5c.7.2 1.3.2 2 .2.3 0 .7 0 1-.1v1.5c0 .2.2.5.5.5.2 0 .5-.2.5-.5v-1.7c.9-.2 1.7-.5 2.4-.9 3.1-1.7 3.8-4.6 3.9-6.4.2.4.3.7.4.9.2.5.3.7.7.7.2 0 .4-.2.4-.3.6-2 .5-3.8-.5-5.5-.7-1-1.8-2.2-3.4-3l.7-1.1c.1-.2.1-.5-.1-.6s-.5-.1-.6.1l-.8 1.2c-.8-.4-1.8-.8-2.8-1-.9-.2-1.8-.3-2.6-.2l-.1-.8c0-.2-.3-.4-.5-.4s-.4.3-.4.5l.1.8c-1.3.3-2.5.9-3.4 1.6l-.7-1.2c-.1-.2-.4-.3-.6-.1-.2.1-.3.4-.1.6l.8 1.2c-.9.8-1.6 1.6-1.9 2.1l-.7-.7c-.2-.2-.5-.2-.6 0-.2.2-.2.5 0 .6l.8.8c-.4.5-.8 1.3-1.3 2.1l-2-.8c-.2-.1-.5 0-.6.3-.2.2-.1.5.1.6zm4.4-1.5 1.2 1.3-1 1-1.3-.5c.3-.7.7-1.3 1.1-1.8zm2.3-2.7 1.1 1.8-.1.1-1.1 1.1-.3.3-1.3-1.4c0-.1.1-.1.1-.2.2-.3.8-1 1.6-1.7zm3.7-2.1.3 2.1c-.8.2-1.6.6-2.3 1.1l-1.1-1.8c.9-.5 1.9-1.1 3.1-1.4zm5.7 1-.9 1.3c-.8-.3-1.6-.4-2.4-.4-.4 0-.8 0-1.1.1l-.3-2.1c.7-.1 1.4 0 2.2.2.8.2 1.7.5 2.5.9zm1 2.3c-.4-.3-.7-.5-1.1-.7l.8-1.2c1.4.8 2.5 1.8 3.1 3 .6 1.1.8 2.3.7 3.5C89 86 88 84 86.1 82.6zm-13 5.5c.8-.8 1.8-1.8 3.1-3l1.1-1.1c.9-.9 1.9-1.4 3-1.7 1.8-.4 3.7-.1 5.3 1.1 1 .8 1.8 1.7 2.4 2.6 0 .9-.1 5.1-3.6 7-2.2 1.2-4.9 1.3-7.1.3-1.5-.6-3.4-2.1-4.2-5.2zm-1.3-1.5 1.1.4c-.9.9-1.7 1.6-2.3 1.9.2-.4.6-1.3 1.2-2.3z" fill="#000000" stroke-width="none" opacity="1"></path></g></g></g><g id="svga-group-eyes-right-move" transform="matrix(1,0,0,1,0,0)"><g id="svga-group-eyes-right"><g id="svga-group-eyesback-right"></g><g id="svga-group-eyesiriswrapper-right"><g id="svga-group-eyesiriscontrol-right" transform="matrix(1,0,0,1,0,0)"><g id="svga-group-eyesiris-right"><path id="SvgjsPath3454" d="M123.4 84.8c-1-1.9-3.2-2.7-5.2-2-2.2.8-3.8 3-3.1 5.4.4 1.2 1.5 2.4 2.8 2.7.4.1.9.1 1.4.1.5.1 1.1 0 1.7-.2 2.5-.9 3.6-3.7 2.4-6z" fill="#ffffff" stroke-width="none" opacity="1"></path><path id="SvgjsPath3455" d="M121.8 85.8c0-.1 0-.1-.1-.1-.6-1.1-2-1.5-3.1-1 .2.2.4.5.6.7.2.3.5 1 .1 1.2-.4.2-1 0-1.3-.2-.2-.1-.3-.3-.5-.5 0 .1-.1.1-.1.2-.1.2-.1.4-.1.6-.2.7 0 1.4.5 1.9.2.2.5.3.8.4.6.3 1.2.4 1.8.1-.1-.1-.2-.2-.2-.4 0-.3.2-.6.5-.7.3-.1.6 0 .7.2.3-.3.5-.7.6-1.1.2-.3 0-.9-.2-1.3zm-2.1 5.3h-.4c-.5 0-1 0-1.4-.1-1.3-.3-2.4-1.4-2.9-2.8-.8-2.5.9-4.8 3.1-5.5 2.1-.8 4.4.1 5.4 2 .6 1.1.7 2.5.2 3.7s-1.4 2.1-2.6 2.5c-.5.2-.9.2-1.4.2zm-.3-.3c.6.1 1.1 0 1.6-.2 1.1-.4 2-1.2 2.4-2.4.4-1.1.4-2.3-.2-3.4-.9-1.8-3.1-2.6-5-1.9-2.1.7-3.7 2.9-3 5.2.4 1.3 1.5 2.3 2.7 2.6.5.1 1 .1 1.5.1z" fill="#000000" stroke-width="none" opacity="1"></path></g></g></g><g id="svga-group-eyesfront-right"><path id="SvgjsPath4606" d="M119 74.4c-6.9 0-12.5 5.6-12.5 12.5s5.6 12.5 12.5 12.5 12.5-5.6 12.5-12.5-5.6-12.5-12.5-12.5zm2 20c-3.2.2-5.6-1.3-7.3-2.7s-1.7-5.8-1.7-5.8c1.8-3.5 4.4-4 7.1-4.1s3.9 1.9 5.2 2.8c1.3.9 3.4 3.7 3.4 3.7-.4 2.1-3.5 5.9-6.7 6.1z" fill="#ffffff" stroke-width="none" opacity="1"></path><path id="SvgjsPath4609" d="M131.5 85c-.1-.2-.4-.3-.6-.3l-2 .8c-.5-.8-1-1.5-1.3-2.1l.8-.8c.2-.2.2-.5 0-.6-.2-.2-.5-.2-.6 0l-.7.7c-.3-.5-1-1.3-1.9-2.1l.8-1.2c.1-.2.1-.5-.1-.6s-.5-.1-.6.1l-.7 1.2c-.9-.7-2.1-1.3-3.4-1.6l.1-.8c0-.2-.1-.5-.4-.5-.2 0-.5.1-.5.4l-.1.8c-.8-.1-1.7 0-2.6.2-1 .3-1.9.6-2.8 1l-.8-1.2c-.1-.2-.4-.3-.6-.1-.2.1-.3.4-.1.6l.6 1.1c-1.5.9-2.7 2-3.4 3.3-.9 1.6-1.1 3.5-.5 5.5.1.2.2.3.4.3.3 0 .4-.2.7-.7.1-.2.2-.5.4-.9.1 1.7.9 4.7 3.9 6.4.8.4 1.6.7 2.4.9v1.7c0 .2.2.5.5.5s.5-.2.5-.5V95c.3 0 .7.1 1 .1.7 0 1.4-.1 2-.2l.6 1.5c.1.2.2.3.4.3h.2c.2-.1.3-.4.2-.6l-.6-1.4c.2-.1.4-.2.7-.2.5-.2 1-.5 1.5-.9l1.7 1.6c.1.1.2.1.3.1.1 0 .2 0 .3-.1.2-.2.2-.5 0-.6l-1.6-1.6c.4-.3.7-.7 1-1.1l2.3 1.3c.1 0 .2.1.2.1.2 0 .3-.1.4-.2.1-.2.1-.5-.2-.6l-2.2-1.3c.4-.6.7-1.3.9-2.1 1 .9 1.7 1.3 2.1 1.3.2 0 .4-.1.5-.3.2-.5-.4-1.9-1.2-3.4l1.9-.8c.2-.4.3-.7.2-.9zm-3.4.9-1.3.5-1-1 1.2-1.3c.3.5.7 1.1 1.1 1.8zm-1.8-2.7s.1.1.1.2l-1.3 1.4-.3-.3-1.1-1.1-.1-.1 1.1-1.8c.8.6 1.3 1.3 1.6 1.7zm-2.3-2.4-1.1 1.8c-.7-.5-1.5-.9-2.3-1.1l.3-2.1c1.2.2 2.2.8 3.1 1.4zm-6.2-1.4c.8-.2 1.5-.3 2.2-.2l-.3 2.1c-.4-.1-.8-.1-1.1-.1-.8 0-1.6.1-2.4.4l-.9-1.3c.7-.4 1.6-.7 2.5-.9zm-7.1 7.8c-.2-1.3.1-2.4.7-3.5s1.7-2.2 3.1-3l.8 1.2c-.4.2-.7.4-1.1.7-1.8 1.4-2.9 3.4-3.5 4.6zm16.5.9c-.8 3.1-2.7 4.5-4.1 5.2-2.2 1-4.9.9-7.1-.3-3.4-1.9-3.6-6-3.6-7 .6-.9 1.3-1.9 2.4-2.6 1.6-1.2 3.5-1.5 5.3-1.1 1.1.3 2.2.8 3 1.7l1.1 1.1 3 3zm2.5.9c-.5-.3-1.4-1-2.3-1.9l1.1-.4c.6.9 1 1.8 1.2 2.3z" fill="#000000" stroke-width="none" opacity="1"></path></g></g></g><g id="svga-group-facehighlight-single"></g><g id="svga-group-eyebrows-left-move" transform="matrix(1,0,0,1,0,0)"><g id="svga-group-eyebrows-left-rotate" transform="matrix(1,1.7453292519943295e-9,-1.7453292519943295e-9,1,1.3121334063725953e-7,-1.391175175058379e-7)"><g id="svga-group-eyebrows-left"><path id="SvgjsPath3534" d="M74.33 71.59c1.52-.07 17.06 3.38 17.49 4.03.43.65-.65 3.02-1.15 3.17-.5.14-15.19-4.53-15.83-4.39-.65.14-6.91 2.59-7.34 2.38-.44-.22 5.32-5.12 6.83-5.19z" fill="#ffffff" stroke-width="none" opacity="1"></path><path id="SvgjsPath3535" d="M67.28 77.2c.35.18.9.08 5.66-1.64.84-.31 1.71-.62 1.97-.69.63.05 4.8 1.29 8.16 2.29 5.89 1.75 7.16 2.1 7.6 2.1.06 0 .11-.01.15-.02.67-.19 1.21-1.59 1.31-1.87.24-.64.45-1.52.11-2.03-.69-1.04-16.86-4.29-17.91-4.24-1.63.08-7.13 4.66-7.31 5.5-.07.26.04.49.26.6zm7.07-5.13c.13-.01.37.01.68.06l2.07 2.3c-1.61-.45-2.16-.55-2.37-.5-.03.01-.08.02-.12.04l-2.21-.88c.86-.59 1.6-1 1.95-1.02zm3.91 2.69-2.22-2.47c.77.13 1.74.32 2.82.54l1.57 2.56c-.84-.25-1.56-.46-2.17-.63zm3.08.9-1.63-2.65c.72.15 1.47.31 2.23.48l.63 2.53c-.43-.13-.84-.25-1.23-.36zm6.77 1.99c-.33-.1-.68-.2-1.05-.3l.67-2.5c.48.12.93.24 1.34.35l-.96 2.45zm1.59-2.28c.3.08.57.16.81.23l-.96 2.45c-.24-.07-.52-.14-.81-.22l.96-2.46zm-3.25 1.8c-.48-.14-.98-.29-1.48-.44l.38-2.46c.61.14 1.2.29 1.76.43l-.66 2.47zm4.1 1.13c-.09-.01-.22-.04-.37-.08l.95-2.41c.14.05.25.09.32.13.11.44-.52 1.99-.9 2.36zm-7.22-2.05c-.01 0-.03-.01-.04-.01l-.65-2.59c.7.16 1.4.32 2.08.48l-.37 2.43c-.34-.11-.69-.22-1.02-.31zm-10.72-1.59c-.12.04-.25.09-.39.14-.53.02-1.48.07-2.24.11.57-.47 1.19-.95 1.79-1.38l1.9.75c-.3.1-.63.23-1.06.38zm-3.91 1.36c.14-.13.31-.28.48-.43.27-.01.6-.03.96-.05-.52.18-1.02.35-1.44.48z" fill="#000000" stroke-width="none" opacity="1"></path></g></g></g><g id="svga-group-eyebrows-right-move" transform="matrix(1,0,0,1,0,0)"><g id="svga-group-eyebrows-right-rotate" transform="matrix(1,1.7453292519943295e-9,-1.7453292519943295e-9,1,1.3123080577770452e-7,-2.0997542549139325e-7)"><g id="svga-group-eyebrows-right"><path id="SvgjsPath3536" d="M125.67 71.59c-1.52-.07-17.06 3.38-17.49 4.03-.43.65.65 3.02 1.15 3.17.5.14 15.19-4.53 15.83-4.39.65.14 6.91 2.59 7.34 2.38s-5.32-5.12-6.83-5.19z" fill="#ffffff" stroke-width="none" opacity="1"></path><path id="SvgjsPath3537" d="M133 76.61c-.18-.84-5.68-5.42-7.31-5.5-1.06-.05-17.22 3.2-17.91 4.24-.34.51-.13 1.39.11 2.03.1.28.65 1.68 1.31 1.87.04.01.08.02.15.02.43 0 1.71-.35 7.6-2.1 3.36-1 7.53-2.24 8.16-2.29.25.07 1.12.38 1.97.69 4.76 1.72 5.3 1.81 5.66 1.64.2-.12.31-.35.26-.6zm-5.4-3.52-2.21.88c-.04-.01-.09-.03-.12-.04-.21-.05-.76.06-2.37.5l2.07-2.3c.31-.04.55-.06.68-.06.35.02 1.09.43 1.95 1.02zm-8.02 2.3 1.57-2.56c1.08-.22 2.05-.41 2.82-.54l-2.22 2.47c-.62.17-1.34.38-2.17.63zm-2.16.63.63-2.53c.76-.17 1.51-.33 2.23-.48l-1.63 2.65c-.38.11-.79.23-1.23.36zm-6.5-.82c.41-.11.86-.23 1.34-.35l.67 2.5c-.37.11-.72.21-1.05.3l-.96-2.45zm.35 2.63c-.3.08-.57.16-.81.22l-.96-2.45c.24-.07.51-.15.81-.23l.96 2.46zm1.61-3.13c.56-.14 1.15-.28 1.76-.43l.38 2.46c-.5.15-.99.29-1.48.44l-.66-2.47zm-4.32 1.23c.07-.04.18-.08.32-.13l.95 2.41c-.16.04-.29.07-.37.08-.39-.36-1.02-1.91-.9-2.36zm7.09.62-.37-2.43c.68-.16 1.38-.32 2.08-.48l-.65 2.59c-.01 0-.03.01-.04.01-.33.1-.68.21-1.02.31zm10.68-2.27 1.9-.75c.6.43 1.22.92 1.79 1.38-.76-.04-1.71-.09-2.24-.11-.14-.05-.27-.1-.39-.14-.43-.15-.76-.28-1.06-.38zm3.54 1.26c.36.02.68.03.96.05.17.15.33.3.48.43-.43-.13-.93-.3-1.44-.48z" fill="#000000" stroke-width="none" opacity="1"></path></g></g></g><g id="svga-group-nose-single-move" transform="matrix(1,0,0,1,0,0)"><g id="svga-group-nose-single"><path id="SvgjsPath4228" d="M106.5 101.9c-.4-.3-.8.4-.4.7 1.3 1 2.6 2.7.6 3.7-1.2.6-2.5 1-3.7 1.4-2.9.9-5.6.7-8.5 0-.2 0-.3-.1-.6-.1h.7c.3 0 .3-.1.6-.1.2 0 .3-.3.3-.5l-.1-.2c0-.1 0-.2-.1-.3-.2-.3-.4-.5-.7-.8-.6-.5-1.4-.9-2.2-.8-.5.1-1 .3-1.2.9-.1.4 0 .9.4 1.2-.6-.3-1-.7-1-1.3.1-1.3 1.1-2.6 1.6-3.7 1.4-2.6 2.7-5.2 4.1-7.8.2-.5-.5-.9-.7-.4l-3 5.7c-.8 1.6-1.8 3.2-2.5 4.9-.5 1.1-.5 2.5.7 3.2.7.4 1.5.5 2.2.7.9.2 1.8.5 2.8.7 3.8.7 7.2-.1 10.7-1.5.9-.4 1.9-1 2.1-2.1.2-1.6-1-2.7-2.1-3.5z" fill="#000000" stroke-width="none" opacity="1"></path><path id="SvgjsPath4229" d="M102.6 107.5c.5 0 1.1-.1 1.5-.2.5-.1 1.1-.3 1.6-.6.9-.5.5-2-.5-2-.7 0-1.5.3-2.1.8-.3.2-.5.4-.7.7-.1.1-.1.1 0 0l-.1.1c-.1.1-.2.3-.2.4-.1.5.2.8.5.8z" fill="#000000" stroke-width="none" opacity="1"></path></g></g><g id="svga-group-hair-front"><path id="SvgjsPath5089" d="M63.6 85.3s.7-2.7 3.6-12.3c3.1-10.3 9.6-19.5 20.2-23.6s25.8-2.2 32.2 2.2 11.6 9.9 13.5 16.6c1.9 6.7 2.2 16.8 4.6 18.3 0 0 3.4-8.4 3.6-15.2.2-6.7 0-13.7-4.3-22.9-4.3-9.1-13.5-15.4-24.5-18.5s-25.5-.2-31.8 2.5c-6.3 2.6-12.8 9.1-16.8 18.8S61.2 74 61.4 75.9c.3 1.9 2.2 9.4 2.2 9.4z" fill="#000000" stroke-width="none" opacity="1"></path><path id="SvgjsPath5090" d="M94.5 45.5c-.8-4.7-.9-9.3-.4-14 .1-.8-1.2-.8-1.2 0-.5 4.8-.4 9.6.4 14.4.1.7 1.4.4 1.2-.4zm-7.9 2.6c-.7-5.4-.3-10.7 1.2-15.9.2-.8-1-1.1-1.2-.3-1.6 5.4-2 10.9-1.2 16.6.1.7 1.3.4 1.2-.4zm-3.7 1c-.6-5.6.4-11.6 2.8-16.7.3-.7-.7-1.4-1.1-.6-2.5 5.3-3.6 11.5-2.9 17.3.1.8 1.3.8 1.2 0zm-10.1 6.3c-.1-4.6.9-9.1 2.8-13.3.3-.7-.7-1.4-1.1-.6-2.1 4.4-3.1 9-3 13.9 0 .8 1.3.8 1.3 0zm-7.2 16C64 58.7 67.8 45.9 76.8 36.7c.6-.6-.3-1.5-.9-.9-9.2 9.4-13.2 22.6-11.6 35.6.1.8 1.3.8 1.3 0zm40.6-39.2c.3 4 .5 8 .8 12 .1.8 1.3.8 1.2 0-.3-4-.5-8-.8-12-.1-.7-1.3-.7-1.2 0zm3.9-.2c1.4 4.8 2.2 9.7 2.2 14.7 0 .8 1.3.8 1.2 0-.1-5.1-.9-10.1-2.3-15-.1-.8-1.3-.5-1.1.3zm12.3 19.8c.2-6-.7-11.8-2.6-17.4-.3-.8-1.5-.4-1.2.3 1.9 5.5 2.8 11.2 2.6 17.1-.1.7 1.1.7 1.2 0zm4.4 2.6c.4-5 .1-10-1-15-.2-.8-1.4-.5-1.2.3 1.1 4.8 1.3 9.7.9 14.6 0 .9 1.2.9 1.3.1zm8.1 11.4c.5-6.7-.6-13.2-3.3-19.4-.3-.7-1.4-.1-1.1.6 2.6 6 3.6 12.3 3.2 18.7-.1.9 1.2.9 1.2.1zm3.4 14c.7-6.5.7-13 0-19.5-.1-.8-1.3-.8-1.2 0 .7 6.5.7 13 0 19.5-.1.8 1.1.8 1.2 0zm-70-13.5c-.8-11 2.4-21.5 9.2-30.2.5-.6-.4-1.5-.9-.9-7 9-10.4 19.8-9.6 31.1.1.8 1.4.8 1.3 0zm11.2-14.7c.4-6.9 2.4-13.4 5.9-19.4.4-.7-.7-1.3-1.1-.6-3.6 6.2-5.6 12.9-6.1 20 0 .8 1.2.8 1.3 0zM122 35.4c4.8 7.2 7.5 15.2 8 23.8.1.8 1.3.8 1.2 0-.5-8.9-3.2-17.1-8.2-24.5-.4-.6-1.5 0-1 .7z" fill="#ffffff" stroke-width="none" opacity="1"></path></g><g id="svga-group-glasses-single-move" transform="matrix(1,0,0,1,0,0)"><g id="svga-group-glasses-single"></g></g></g></g></g><rect id="svga-credit-rect" width="200" height="15" x="0" y="185" fill="#ecf0f1" opacity="0.5" style="display: none;"></rect><text id="svga-credit-text" font-family="Avenir Next, Roboto, Helvetica, Arial, sans-serif" font-size="10px" text-anchor="start" font-weight="400" size="10px" anchor="start" weight="400" fill="#333333" x="34.02062225341797" y="182.60824704170227" style="display: none;"><tspan id="SvgjsTspan3371" dy="13" x="34.02062225341797">Created on AvatarMaker.com</tspan></text></g><defs id="SvgjsDefs3323"></defs></svg>