<svg xmlns="http://www.w3.org/2000/svg" version="1.1" width="600px" height="600px" viewBox="0 0 200 200" style="overflow:hidden!important;"><g id="svga-group-wrapper"><g id="svga-group-backs-single"></g><g id="svga-group-humanwrap-move" transform="matrix(1,0,0,1,0,0)"><g id="svga-group-humanwrap"><g id="svga-group-hair-back-move" transform="matrix(1,0,0,1,0,0)"><g id="svga-group-hair-back"></g></g><g id="svga-group-humanbody-back"><path id="SvgjsPath3770" d="M77.6 118.3c0 19.3 3.4 44.1-10 51.9-13.4 7.9-31.9 11.3-37.8 22s-4.4 25.3-4.4 25.3h149.3s.7-18.9-5.1-26.4c-8.1-10.4-27.8-15.5-37.7-20.9s-13.4-25.1-13.4-52.4l-40.9.5z" fill="#ffffff" stroke-width="none" opacity="1"></path></g><g id="svga-group-chinshadow-single"></g><g id="svga-group-humanbody-front"><path id="SvgjsPath3771" d="M175.8 218.7H24.4l-.1-1c-.1-.6-1.5-15.1 4.5-26 4.1-7.4 13.5-11.3 23.5-15.5 5-2.1 10.2-4.3 14.8-6.9 10.6-6.2 10.1-23.9 9.6-41-.1-3.5-.2-6.8-.2-10v-1.1l43.2-.4v1.1c0 29.9 4.2 46.7 12.8 51.4 2.9 1.6 6.7 3.2 10.8 4.9 10 4.1 21.3 8.8 27.2 16.3 6.1 7.7 5.4 26.4 5.4 27.1l-.1 1.1zm-149.3-2.2h147.1c0-4.1-.2-18.5-4.9-24.6-5.5-7-16.6-11.6-26.3-15.6-4.1-1.7-8-3.3-11-5-5.1-2.8-8.7-8.9-10.9-18.7-2-8.4-2.9-19.4-3-33.5l-38.6.4c0 2.8.1 5.7.2 8.8.5 17.8 1 36.1-10.7 43-4.7 2.7-9.9 4.9-15 7.1-9.6 4-18.7 7.8-22.4 14.5-5 8.6-4.7 20.1-4.5 23.6z" fill="#000000" stroke-width="none" opacity="1"></path><path id="SvgjsPath3772" d="M93.9 153.8c-.5 1.8-.4 3.4.5 5.2.8 1.6 2.1 2.7 3.9 2.9.4 0 .7-.5.5-.8-1.6-2.2-3.5-4.2-3.7-7.1 0-.7-1-.9-1.2-.2z" fill="#000000" stroke-width="none" opacity="1"></path><path id="SvgjsPath3773" d="M112.5 187.5c8.8.5 18.1-.7 26.6-2.9.7-.2.6-1.4-.2-1.3-8.8 1.1-17.7 2-26.5 3.3-.5.1-.3.9.1.9z" fill="#000000" stroke-width="none" opacity="1"></path><path id="SvgjsPath3774" d="M63.1 182.5c3.8.9 7.6 1.9 11.5 2.8 3.6.8 7.4 2 11.1 2.1.7 0 .8-.9.2-1.2-3.5-1.4-7.5-1.7-11.2-2.5-3.8-.7-7.5-1.3-11.3-2-.5 0-.7.7-.3.8z" fill="#000000" stroke-width="none" opacity="1"></path></g><g id="svga-group-clothes-single"><path id="SvgjsPath4892" d="M77.8 138.6c-5.2-1.2-10.8-2-10.3 3.7s1.4 7.9 1.4 7.9-5.6.9-4.8 5.7c.7 4.8 1.8 6.3 1.8 6.3s-2.3 1.2-2.9 3.2c-.5 2-.4 3.6-.4 3.6s-14.5 7-18.6 8.4-11.8 5.6-12.5 6.6c-.7 1.1-3.8 2.1-6.1 7.4s-5.9 14.5-3.2 27.3h156.1s-.2-20.5-4.1-25.9-5.9-6.4-5.9-6.4-.9-4.8-5.2-6.6-12.4-6.6-15.4-7.5c-3.1-.9-15.2-3.4-15.9-4.7s2-4.8-.2-7.9c-1.4-2-2.8-3.3-2.8-3.3s4-4.1 1.1-6.9c-2.9-2.9-3.5-4.2-3.5-4.2s1-3.6.3-6.4-7.5-1.1-9.8-1c-2.4.1-32.3 2.3-39.1.7z" fill="#ffffff" stroke-width="none" opacity="1"></path><path id="SvgjsPath4893" d="M175 192.2c-1.4-1.8-2.5-3.2-3.4-4.2l.1-.1c.1-.1 0-.3-.2-.2 0 0-.1 0-.1.1-1.1-1.1-1.8-1.8-2.2-2.1-.3-1.3-1.7-5.3-5.7-6.9-1.9-.8-4.6-2.2-7.2-3.6-3.4-1.8-6.5-3.4-8.3-4-.9-.3-2.5-.6-4.3-1.1-3.2-.8-9.9-2.4-11.1-3.2 0-.3.2-.9.3-1.4.4-1.7 1.1-4.2-.5-6.5-.9-1.2-1.7-2.2-2.2-2.8 1.5-1.9 2.9-5.1.5-7.6-1.9-1.9-2.8-3.1-3.2-3.6.3-1.1.8-4 .2-6.5-.8-3.2-5.8-2.4-9.2-1.9-.7.1-1.3.2-1.7.2-11 .9-33.3 2.1-38.7.8-4-.9-8-1.6-10.1.3-1.1 1-1.6 2.5-1.4 4.5.3 3.6.8 5.9 1.1 7-2.3.7-5.1 2.7-4.6 6.6.5 3.1 1 4.8 1.5 5.8-.8.6-2.1 1.8-2.5 3.3-.4 1.3-.4 2.5-.4 3.2-2.8 1.3-14.4 6.9-17.9 8.1-3.7 1.3-12.1 5.5-13 7-.1.2-.5.5-.9.8-1.3 1-3.5 2.8-5.3 6.7-2.7 6-5.9 15.4-3.3 27.9.1.5.5.8 1 .8h156.1c.3 0 .5-.1.7-.3s.3-.4.3-.7c-.1-.8-.3-20.8-4.4-26.4zm-18.1 25.5h-1.5v-1.4c7.8.4 15.7-2.5 21.3-7.9.1 1.2.2 2.5.3 3.6-4.7 3.4-9.8 5.3-15.5 5.7h-4.6zm-.5-13.5c6.6 1.7 13.7 0 19.4-3.7.1.8.3 1.5.4 2.3-6.1 5.1-12.4 8.1-20.5 8.3.1-2.1.3-4.5.7-6.9zm-.8 7.4c7.5.1 15.3-2.7 20.6-8.1.2 1.4.4 2.9.5 4.4-6.2 5.4-13 8.1-21.2 8.1 0-1.4 0-2.8.1-4.4zm20-11.5c-6.1 3.6-12.2 4.4-19.2 3.7.2-1.2.4-2.5.7-3.6 5.3.1 14.3-.5 16.9-5.6.7 1.3 1.2 3.3 1.6 5.5zm-1.9-6.1c-3.1 4.9-10.9 5.6-16.5 5.8 0-.1.1-.2.1-.3.4-1.7 1.1-3.1 1.8-4.3 4.5.6 9.3-.9 13.1-3.2l1.2 1.5c.1.1.2.3.3.5zm-1.8-2.6c-4 2.2-7.9 2.8-12.5 3.1.9-1.5 1.9-2.7 3.1-3.6 2.6.4 5.4-.1 7.6-1.6.5.6 1.1 1.3 1.8 2.1zm-2.2-2.5c-2.1 1.2-4.3 1.8-6.7 1.6 1.7-1.4 3.6-2.4 5.2-3 .2.2.7.7 1.5 1.4zm-39-28.7c1.1 1.5.6 3.3.2 4.8-.2.9-.4 1.6-.3 2.3-.5.7-1.8 1.7-3.5 2.9 1.7-3.2 1.3-7.5-.1-10.8.7-.7 1.3-1.3 1.7-1.8.5.7 1.2 1.6 2 2.6zm-63.6 10.3c-.8-2.1-.8-4.3.4-6.4.7.4 1.5.8 2.3 1.2-1.3 1.6-1.6 4.1-.9 6.2-.6-.3-1.2-.7-1.8-1zm5.5-18.4c-2.6 2.9-3.1 7.4-2.2 11.2-1-.5-1.9-1-2.6-1.4-.6-2.5-.4-5.1.8-7.6.4-.9 1.4-1.8 2.2-2.8.5.3 1.2.5 1.8.6zm5-12.5c.2.1.4.1.7.2-3.2 2.8-4 7.8-1.6 11.3-.7-.1-1.3-.3-2.1-.5-1.5-4-1.2-7.9 1.2-11.4.6.1 1.3.2 1.8.4zm11.5.5c1.4 0 2.8-.1 4.3-.1v1.7c-1.5-.3-3-.7-4.6-1.1 0-.1 0-.2.1-.3.1 0 .2-.1.2-.2zm17.2-.6c-.6 1.2-.7 2.3-.7 3.8v.4h-.1c-.9.1-2.8-.2-5.3-.6-.1-1.1-.1-2.3.2-3.3 2-.1 4-.2 5.9-.3zm5.8-.4c.1 1.1.2 2.2.2 3.4-2.2.6-4.5 1-6.2 1.2.1-1.6.3-3.1.9-4.2 1.9-.2 3.6-.3 5.1-.4zm3.1-.2c.2.6.1 1.8 0 2.8-.7.2-1.5.4-2.2.6 0-1.1-.1-2.1-.2-3.2.9-.1 1.8-.2 2.4-.2zm3.5 1.6c0-.4.3-.8.2-1.3 0-.2-.1-.5-.1-.7 1-.2 2.7-.4 4.2-.4.4.5.7 1.2.9 1.6.2.7.2 1.6.2 2.3 0 1.4-.4 2.7-.9 4v.1c-.8.4-1.8.9-3.1 1.4.7-1.6.6-3.5-.5-5.1.3-.1.6-.2.8-.4.5-.2.7-.9.4-1.3-.2-.5-.8-.7-1.3-.4-.3 0-.5.1-.8.2zm7.4 17.1c-1.2 1.2-2.8 2.7-4.5 4 .8-4 1-9-1.8-12 1.8-.6 3.2-1.2 4.2-1.8 2.2 2.9 2.9 6.3 2.1 9.8zm-13.1 7.7c.1-.4.1-.8.2-1.2 1-3.7 1.1-6.6.2-10.3-.2-.8-.3-1.7-.4-2.5.9-.2 1.8-.3 2.6-.5.8 2.4 1.4 4.8 1.4 7.4 0 2-1.2 4.4-1.4 6.3-.7.2-1.6.5-2.6.8zm-3.9 1c.1-2.6 0-5.3-.3-7.8-.3-2.1-1.2-4-1.7-6 1.5-.4 3-.7 4.5-.9.2 0 .4-.1.7-.1.7 5.4 2.1 9.1-.4 14.2-1 .1-1.9.3-2.8.6zm-33-.6v-.1c-2.1-4.6-2.1-8.4 1-12.3 1.3.3 2.6.5 3.8.7-.9 1.4-2.1 2.6-2.7 4.2-1 2.8 0 5.7-.2 8.5-.7-.2-1.3-.5-2-.8 0-.1 0-.1.1-.2zm2.7-25.7c1.1.4 2.5.8 4 1.2-1.2 1.1-1.3 2.3-1.2 4.1.1 2.3.6 4.5.1 6.7-1.3-.2-2.6-.4-4-.7-2.4-4-2.2-8 1.1-11.3zm.9 16.7c.5-.9 1.2-1.8 1.9-2.7 1.9.3 3.7.5 5.3.6-1.2 4.6-2.4 10.1.1 14.2-2.7-.3-5.5-1-8.1-1.9.1-.3.1-.6.2-.9.3-3.2-1.3-5.8.6-9.3zm8.4 12.3c-.1 0-.1 0 0 0H87.8c-2.5-4.9-.8-9.3-.2-14.3 1.2.1 2.4.1 3.5.1.8 0 1.6 0 2.4-.1-3.7 3.8-1.9 9.9.3 14.1-2.1.3-4.1.3-5.7.2zm5.8-25.1c2 .4 3.9.8 5.6 1.1 0 .5-.1 1-.2 1.6-.3 1.9-.6 3.7.2 5.5-1.8.3-3.7.6-5.9.7-.8-3.1-.4-5.8.3-8.9zm11.3 1.8h.4c0 1.6.1 3.4.2 5-.2.1-.4.1-.7.2-1.6.4-3.2.8-5 1.1-1-2.2-.2-4.3 0-6.6v-.2c2.3.3 4.1.5 5.1.5zm10.1-2c.4 1.8 1.1 3.4-.1 5.1-.7.2-1.5.3-2.3.5-.1-1.6 0-3.3 0-4.9.9-.2 1.6-.4 2.4-.7zm-3.2 5.7c-.3.1-.6.1-.8.1-1.6.2-3.1.6-4.6.9-.2-1.3-.4-3.1-.5-4.8 1.7-.1 3.9-.6 6.1-1.1-.2 1.7-.3 3.3-.2 4.9zm-17.8 19.4c-2.1-4.9-3.1-9.1-.3-14.1 2.3-.1 4.3-.4 6.2-.8-1.3 4.7.9 9.2 1.2 13.9-2.4.5-4.8.8-7.1 1zm7.8-2.4c-.5-4.4-2.4-8-1.3-12.5 1.8-.3 3.4-.7 5-1.1.2 0 .3-.1.5-.1v.1c.6 2.6 1.9 4.5 2.1 7.2.2 2.1.1 4.2 0 6.4v.1c-2 .5-4.1.9-6.2 1.3-.1-.5-.1-1-.1-1.4zm14.1-15.8c1.1-.2 2-.5 2.9-.8 2.8 3.8 2.6 7.6 1.9 12.2-.8.6-1.6 1-2.4 1.4-.4.1-.8.3-1.3.5.1-1.9.4-3.7.5-5.8-.1-2.6-.6-5.1-1.6-7.5zm2.6-8c.4.4.8.9 1 1.5.4 1.3.2 2.5-.3 3.6-.9.3-2 .6-3.3.9.8-1.4.4-3.1-.1-4.6-.1-.2-.1-.3-.1-.5 1-.3 1.9-.6 2.8-.9zm-19.3.3c-1.6-.3-3.5-.7-5.4-1.1V140c1.9-.1 3.8-.1 5.7-.2-.2.4-.3.9-.3 1.4v1.7zm-6.2.9c-1.4 2.7-1.3 6.1-.3 9-1.7.1-3.5.1-5.6-.1-1.4-3.4-1.3-6.9-.1-10.3 2.1.5 4.1.9 6 1.4zm-6.5 8.8c-1.3-.1-2.7-.2-4.1-.5.1-.2.2-.4.2-.6.9-3.2-1.8-7.4.4-10.2 1.1.3 2.3.6 3.6.9-1.5 3.4-1.4 7.1-.1 10.4zm-10.5.4c-3.1 3.3-3.7 9.1-.8 12.6-1.7-.7-3.2-1.4-4.6-2.1-.9-4.2.2-7.6 2.3-11.3 1.1.4 2.1.6 3.1.8zm-6.7 18.9c-.7-2.2-.3-4.1.6-6.4 1.4.7 2.9 1.4 4.6 2.1-.6 1.4-1.3 2.9-1.7 4.3-.2.6-.2 1.2-.1 1.8-1.2-.6-2.3-1.2-3.4-1.8zm4.4 2.2c-.7-1.4.1-3 .7-4.4.2-.6.5-1.3.7-1.9.7.3 1.5.6 2.3.9-.1.2-.1.4-.2.6-.8 2.2-1.5 4-.9 6-.9-.4-1.7-.8-2.6-1.2zm3.2 1.3c-.7-2.3.3-4.4 1.2-6.5 2.8 1 5.9 1.7 8.9 2-.5 2.1-.7 4.4.2 6.4-3-.3-5.6-.7-7.3-1-.9-.2-2-.5-3-.9zm11.1 2c-.9-2.2-.7-4.2-.4-6.4.7.1 1.3.1 2.1.1s1.8 0 2.7-.1c-1 2-.9 4.8-.2 6.9-1.4-.2-2.8-.3-4.2-.5zm4.9.5c-.5-1.4-.7-2.9-.4-4.5.2-.9.5-1.7.9-2.5 2.4-.2 5.1-.6 7.7-1v.2c-.2 3-1.2 6 .3 8.5-2.7-.2-5.6-.4-8.5-.7zm9.3.7c-1.6-2.5-.9-5.8-.5-8.8 2.1-.4 4.2-.8 6.2-1.3-.2 3.4-.5 6.9-.7 10.3-1.4 0-3.2-.1-5-.2zm6.4-10.2c1-.2 2-.5 3-.7 2.3 3.5 2.1 7.8-.3 11.1-.8.1-2 .1-3.7.1.3-3.4.8-7 1-10.5zm5.3 3.6c-.2-2.1-.8-3.3-1.1-4.7 1.1-.3 2.1-.6 3.1-.9.4.8 1.1 1.6 1.2 2.3.8 3 .2 5.9-1.3 8.3-1.4.7-2.7 1.2-3.6 1.5 1.2-1.9 1.9-4 1.7-6.5zm3.4-4.7c-.1-.4-.2-.8-.2-1.2.8-.3 1.4-.5 2-.7.8-.3 1.6-.8 2.4-1.3 2 2.5 3.2 5.2 2.3 8.4-2.2 1.4-4.6 2.9-6.8 4 1.3-2.9 1.1-5.9.3-9.2zm4.7-3.7c1.6-1.1 3.1-2.4 4.3-3.6 1.4 3.9.6 7.2-.7 11.2-.4.3-.9.6-1.3.9.7-3.1.1-6.4-2.3-8.5zm6.8-13.5c2.1 2.1-1 5.4-1.1 5.5v.1s-.3.4-.8.9c.4-3.2-.5-6.5-2.6-9 .6-.4 1.1-.7 1.5-1 .5.8 1.4 1.9 3 3.5zm-3.4-11.1c.5 2.1 0 4.8-.2 5.6-.3.3-.8.6-1.4 1 .8-2 1.3-5.8-.1-7.4.8 0 1.5.3 1.7.8zm-8.8-.2c.3 0 .6-.1 1-.1.1.7-.1 1.4 0 2.1-.7.2-1.4.5-2.2.7v-.6c.1-.6.4-1.1.3-1.7 0-.1-.1-.3-.1-.4h1zm-28.6 1.4c-.1.1-.1.2-.1.4-.5-.1-1-.2-1.5-.4h1.6zM75.2 139c-2.4 3.2-3 7.6-1.5 11.4-.7-.2-1.4-.3-2.1-.5.1-.4-.1-.9-.1-1.4-.4-.9-.7-1.9-.9-2.9-.5-2.3-.4-4.6.3-6.8 1.3-.2 2.9 0 4.3.2zm-5.9.4c.3-.3.8-.5 1.4-.6-.5 1.7-.8 3.3-.7 5.1.2 2.4 1.1 3.6.7 5.6-.3-.1-.6-.2-.9-.2-.3-.9-.8-3.1-1.2-7.1-.2-1.3.1-2.2.7-2.8zm-.4 11.8c.3.1.7.2 1 .3 0 .1-.1.2-.1.3-.3.6-1 1.2-1.3 1.8-1.5 2.5-1.9 5.4-1.4 8.1-.2-.1-.3-.2-.4-.2-.3-.5-1-2.1-1.5-5.7-.6-3.5 2.8-4.4 3.7-4.6zM64 165.6c.3-1 1.3-1.9 1.9-2.3.2.1.3.2.5.3l.6.3c-1.1 1.8-1.5 4-.9 6-1.1-.7-2-1.2-2.5-1.5 0-.6.1-1.6.4-2.8zm-19.6 12.7c3.7-1.3 15.6-7 18.2-8.2 2.2 1.4 11.3 7 17.2 8.1 5.4 1 21.5 2.6 29.1 2.6 1.4 0 2.5-.1 3.2-.2 3.7-.7 16.5-8.1 19.9-11.8 1.5.7 4.6 1.6 11.2 3.2 1.8.4 3.4.8 4.2 1.1 1.6.5 4.8 2.2 7.9 3.8 2.7 1.4 5.4 2.9 7.4 3.7 2.8 1.1 4 3.8 4.4 5.1-6.1 2.7-10 7-11.6 13.1-1.7 6.4-2 15.2-2 18.8H44.3c0-3.4-.3-15.1-2.2-21.3-2-6.3-6.4-10.7-8.9-12.5 2.1-1.3 7.7-4.2 11.2-5.5zm-14.5 39.4c-2.8-.3-5.2-1.1-7.4-2.9-.2-1.4-.3-2.8-.3-4.2 4.6 4.2 11.1 7.1 17.3 6.6.2 0 .2-.4 0-.4-6.8-.9-12.1-2.6-17.3-7 0-1.4.1-2.6.2-3.9 5.3 4.9 12.5 8 19.8 7.8.1 1.8.1 3.2.1 4.1l-12.4-.1zm1.1-31.9c.2-.2.4-.3.6-.5 1.5 1.1 4.5 3.7 6.7 7.6-3.5-1-6.5-2.8-8.7-5.9.5-.5 1-.9 1.4-1.2zm-1.7 1.5c2.1 3.2 5.6 5.8 9.4 6.3.5 1.1 1 2.2 1.4 3.4.3.8.5 1.8.7 2.8-6.1-.1-11.1-2.2-15.1-6.7.2-.5.4-.9.6-1.4 1-2.1 2-3.4 3-4.4zm-3.7 6.2c3.4 4.7 9.6 7.5 15.4 6.7.7 4 1.1 9 1.2 12.8-7.5-.6-13.8-2.7-19.7-7.6.1-1.1.3-2.1.5-3.1.9 1.2 2.5 2 3.8 2.7 3.1 1.7 6.4 3 9.9 3.6.3.1.4-.4.1-.4-2.6-.8-5.1-1.5-7.6-2.6-1.8-.8-5-2-6.1-4 .3-1.4.7-2.8 1.1-4.1 3.8 4.4 9.6 6.9 15.6 6.3.2 0 .3-.4 0-.4-6-.1-11.3-2.2-15.4-6.4.3-1.2.7-2.4 1.2-3.5zm-3 21.9c1.2 1 2.5 1.8 4 2.3H23c-.2-.8-.3-1.5-.4-2.3zm143.8 2.3c3.9-.8 7.5-2.5 10.7-4.9.1 1.9.2 3.6.2 4.9h-10.9zM39.2 196.9c.3 0 .2-.4 0-.4-4.7-.6-8.7-2.6-11.5-6.6-.1-.2-.4 0-.3.2 2.5 4 7 6.9 11.8 6.8z" fill="#000000" stroke-width="none" opacity="1"></path></g><g id="svga-group-head" transform="matrix(1,0,0,1,0,0)"><g id="svga-group-ears-left-move" transform="matrix(1,0,0,1,0,0)"><g id="svga-group-ears-left"><path id="SvgjsPath3678" d="M60.8 80.5c-.2-.3-3.3-4.3-5.9-6.7s-3.4-2.4-4.6-.9c-1.3 1.5-2.9 9.1-2.5 12.4.4 3.4 3.6 8.7 5.2 11.7 1.7 3 3.3 6.7 5.1 6.3 1.9-.4 4.4-4.6 5.7-7.7 1.2-3.1.6-10.9-3-15.1z" fill="#ffffff" stroke-width="none" opacity="1"></path><path id="SvgjsPath3679" d="M52.9 98.9c-.3-.5-.5-1-.8-1.4l-.6-1c-1.8-3.1-4.4-7.8-4.8-11-.4-3.5 1.2-11.4 2.7-13.2.6-.7 1.2-1.3 2.2-1.4 1.2-.1 2.3.7 3.9 2.2 1.6 1.4 3.5 3.6 5.8 6.5l.2.3c3.9 4.6 4.5 12.8 3.2 16.1-1.1 3-3.9 7.8-6.4 8.3h-.5c-2 .1-3.4-2.6-4.9-5.4zm7.2-17.8s-.1-.1-.2-.3c-2.2-2.8-4.1-5-5.6-6.3-1.2-1.1-2.1-1.7-2.4-1.7-.2 0-.4.2-.8.7-1 1.2-2.6 8.4-2.3 11.7.3 2.8 2.8 7.3 4.5 10.3l.6 1c.3.5.5 1 .8 1.4.9 1.7 2.5 4.6 3.3 4.4 1.2-.2 3.6-3.7 4.9-7.1 1.1-2.8.4-10.2-2.8-14.1z" fill="#000000" stroke-width="none" opacity="1"></path><path id="SvgjsPath3680" d="M50 87c-.3-2.3-.5-7.8.8-9.6 2.2-2.9 6 6.4 6.9 9.3 0 .1.1.2.1.3.2.3-.1.7-.4.6-.4-.2-.9-.6-1.3-.8-1.1-.5-1.6.5-1.3 1.8.4 1.8 1.4 2.9 2.2 4.3.1.2 0 .4-.2.3-1.6-.9-3.5-4.5-3.1-6.6.3-2 1.9-1.8 3.1-.8-.7-1.7-1.5-3.3-2.5-4.8-.6-.9-1.2-2-2.2-2.2-1.2-.2-1 .3-1.2 1.8-.8 4.8-.3 10.4 2.5 14.5.1.1 0 .2-.1.1-1.7-2.3-2.9-4.9-3.3-8.2z" fill="#000000" stroke-width="none" opacity="1"></path></g></g><g id="svga-group-ears-right-move" transform="matrix(1,0,0,1,0,0)"><g id="svga-group-ears-right"><path id="SvgjsPath3681" d="M139.2 80.5c.2-.3 3.3-4.3 5.9-6.7 2.6-2.4 3.4-2.4 4.6-.9s2.9 9.1 2.5 12.4c-.4 3.4-3.6 8.7-5.2 11.7-1.7 3-3.3 6.7-5.1 6.3s-4.4-4.6-5.7-7.7c-1.2-3.1-.6-10.9 3-15.1z" fill="#ffffff" stroke-width="none" opacity="1"></path><path id="SvgjsPath3682" d="M142.1 104.4h-.5c-2.5-.5-5.2-5.4-6.4-8.3-1.3-3.4-.7-11.5 3.2-16.1l.2-.3c2.3-2.9 4.2-5.1 5.8-6.5 1.6-1.4 2.7-2.2 3.9-2.2 1 .1 1.6.7 2.2 1.4 1.5 1.8 3.1 9.7 2.7 13.2-.4 3.2-3 7.9-4.8 11l-.6 1c-.3.5-.5.9-.8 1.4-1.4 2.7-2.8 5.4-4.9 5.4zm-2.2-23.3c-3.2 3.9-3.9 11.2-2.8 14.1 1.3 3.4 3.7 6.9 4.9 7.1.8.2 2.4-2.7 3.3-4.4.3-.5.5-1 .8-1.4l.6-1c1.7-3 4.2-7.5 4.5-10.3.4-3.3-1.3-10.5-2.3-11.7-.4-.4-.6-.7-.8-.7-.3 0-1.2.5-2.4 1.7-1.5 1.4-3.3 3.5-5.6 6.3 0 .2-.1.3-.2.3z" fill="#000000" stroke-width="none" opacity="1"></path><path id="SvgjsPath3683" d="M150 87c.3-2.3.5-7.8-.8-9.6-2.2-2.9-6 6.4-6.9 9.3 0 .1-.1.2-.1.3-.2.3.1.7.4.6.4-.2.9-.6 1.3-.8 1.1-.5 1.6.5 1.3 1.8-.4 1.8-1.4 2.9-2.2 4.3-.1.2 0 .4.2.3 1.6-.9 3.5-4.5 3.1-6.6-.3-2-1.9-1.8-3.1-.8.7-1.7 1.5-3.3 2.5-4.8.6-.9 1.2-2 2.2-2.2 1.2-.2 1 .3 1.2 1.8.8 4.8.3 10.4-2.5 14.5-.1.1 0 .2.1.1 1.7-2.3 2.9-4.9 3.3-8.2z" fill="#000000" stroke-width="none" opacity="1"></path></g></g><g id="svga-group-faceshape-wrap"><g id="svga-group-faceshape-single"><path id="SvgjsPath4100" d="M143.8 67.9c-.1-3.3-.3-8.9-1.4-14.2-2.3-11.4-15.1-28.8-42.4-28.8-27.3 0-36.4 13.4-40.5 23.3-2.5 6.2-3.2 15.2-3.4 19.7 0 0-.1 52.2 4.9 60.9 8.7 15.2 64.6 15 76.3 4.3 7.4-6.7 6.6-45.4 6.5-65.2z" fill="#ffffff" stroke-width="none" opacity="1"></path><path id="SvgjsPath4101" d="M102.1 141.8c-6.1 0-12.2-.4-17.7-1.3-8.9-1.4-20.4-4.4-24.3-11.2C55 120.4 55 70 55 67.8c.2-4.8.9-13.8 3.4-20.1 6.6-16.2 20.1-24 41.5-24 12.3 0 23.2 3.6 31.3 10.4 6.3 5.2 10.9 12.5 12.2 19.3 1.1 5.5 1.3 11.4 1.4 14.4v4.1c.2 28-.2 55.8-6.8 61.9-5.7 5.4-20.9 8-35.9 8zM57.3 67.9c0 18 .9 53.7 4.8 60.3 2.7 4.7 10.7 8.3 22.7 10.1 20.3 3.1 45 .2 51.9-6.1 6.4-5.9 6.2-41.2 6-60.2v-4.1c0-3-.3-8.7-1.4-14-1.3-6.4-5.6-13.1-11.5-18-7.7-6.5-18-9.9-29.9-9.9-20.3 0-33.2 7.4-39.4 22.6-2.3 5.9-3 14.6-3.2 19.3z" fill="#000000" stroke-width="none" opacity="1"></path></g></g><g id="svga-group-mouth-single-move" transform="matrix(1,0,0,1,0,0)"><g id="svga-group-mouth-single"><path id="SvgjsPath4702" d="M112.72 120.8c-.61.59-1.29.89-2.01 1.02-2.06-4.17-6.88-5.21-11.2-4.86-3.59.28-9.32.92-9.51 5.52-.65-.06-1.24-.27-1.72-.72-.51-.49-1.28.28-.77.77 1.01.97 2.14 1.16 3.37 1.02-.42 5.26 5.98 5.89 9.79 5.67 3.56-.21 11.01-1.05 9.93-6.27 1.06-.14 2.03-.54 2.88-1.37.51-.5-.26-1.27-.76-.78zm-11.61-3.37c3.59-.03 7.25 1.19 9.01 4.47-1.34.08-2.77-.3-4.1-.5-.06-.01-.11-.01-.17-.02.31-.32.57-.68.76-1.09.14-.32-.33-.59-.47-.27-.23.51-.58.94-1.02 1.29-1.44-.18-2.89-.29-4.34-.28-.31 0-.63.03-.94.04-.07-.17-.15-.33-.22-.5-.14-.32-.61-.04-.47.27.04.08.07.17.11.25-1.24.06-2.49.17-3.72.37-.05.01-.11.02-.17.03a.932.932 0 0 1-.37-.39c-.15-.32-.62-.04-.47.27.05.1.13.17.2.25-1.26.32-2.81.85-4.18.88.2-4.66 7.13-5.04 10.56-5.07zm-1.23 11.27c-3.41.11-8.85-.55-8.44-5.21 0-.01-.01-.02-.01-.03.24-.04.47-.09.72-.15 1.83-.43 3.64-.79 5.48-1-.41.68-.64 1.44-.68 2.25-.02.35.53.35.54 0 .04-.86.32-1.63.82-2.32v-.01c.81-.08 1.63-.13 2.47-.13.24 0 .48.02.72.03.02.03.02.06.06.09.26.17.42.42.48.72.08.34.6.2.52-.14-.05-.24-.16-.45-.3-.63 2.16.14 4.25.55 6.41.78.48.05.94.07 1.39.05 1.16 5.06-6.97 5.6-10.18 5.7z" fill="#000000" stroke-width="none" opacity="1"></path></g></g><g id="svga-group-eyes-left-move" transform="matrix(1,0,0,1,0,0)"><g id="svga-group-eyes-left"><g id="svga-group-eyesback-left"></g><g id="svga-group-eyesiriswrapper-left"><g id="svga-group-eyesiriscontrol-left" transform="matrix(1,0,0,1,0,0)"><g id="svga-group-eyesiris-left"><path id="SvgjsPath3789" d="M83.6 85.1c-1.1-2.1-3.5-2.9-5.7-2.2-2.4.8-4.2 3.3-3.3 5.9.5 1.4 1.6 2.6 3.1 2.9.5.1 1 .1 1.6.1.6.1 1.2 0 1.8-.2 2.6-.9 3.8-4 2.5-6.5z" fill="#ffffff" stroke-width="none" opacity="1"></path><path id="SvgjsPath3790" d="M81.8 86.2c0-.1 0-.1-.1-.2-.6-1.2-2.2-1.7-3.4-1.1.3.2.5.6.6.8.2.4.6 1.1.1 1.3-.4.2-1.1 0-1.4-.2-.2-.1-.4-.3-.5-.5 0 .1-.1.1-.1.2-.1.2-.1.5-.1.7-.2.7 0 1.5.6 2.1.3.2.6.4.9.4.6.3 1.3.4 2 .1-.1-.1-.2-.3-.2-.4 0-.3.2-.6.5-.7.3-.1.6 0 .8.2.3-.3.5-.8.6-1.2.2-.5 0-1.1-.3-1.5zM79.6 92h-.4c-.5 0-1.1 0-1.6-.1-1.4-.3-2.7-1.5-3.2-3-.9-2.7 1-5.2 3.4-6.1 2.3-.8 4.8.1 5.9 2.2.6 1.2.7 2.7.2 4-.5 1.3-1.6 2.3-2.9 2.8-.4.1-.9.2-1.4.2zm-.4-.3c.6.1 1.2 0 1.8-.2 1.2-.4 2.2-1.4 2.7-2.6.5-1.2.4-2.6-.2-3.7-1-1.9-3.4-2.8-5.5-2.1-2.3.8-4.1 3.2-3.2 5.7.5 1.4 1.7 2.6 3 2.8.4.1.9.1 1.4.1z" fill="#000000" stroke-width="none" opacity="1"></path></g></g></g><g id="svga-group-eyesfront-left"><path id="SvgjsPath3722" d="M79 72.1c-8.2 0-14.8 6.6-14.8 14.8s6.6 14.8 14.8 14.8 14.8-6.6 14.8-14.8c0-8.1-6.6-14.8-14.8-14.8zm4 21.1c-5.2.2-9.2-1.8-9.2-1.8s-10-6.3-3.4-8.9c6.4-2.5 14.5.2 17.2 2.8 2.7 2.6 2.3 7 2.3 7s-5 .8-6.9.9z" fill="#ffffff" stroke-width="none" opacity="1"></path><path id="SvgjsPath3723" d="M91.6 90.8c-.3.4-.7.8-1 1.1 0 .1-.1.1-.1.1 0-.2.1-.4.1-.6.1-.1.1-.2.2-.3.2-.4.5-.8.8-1.1.2-.2-.1-.5-.3-.3-.2.2-.4.5-.7.8V90c.1-.1.2-.3.3-.4.4-.5.7-1.1 1.1-1.6.1-.2-.2-.4-.3-.2-.4.5-.8.9-1.2 1.4 0-.1 0-.2-.1-.3.1-.1.1-.3.2-.4.3-.5.7-1 1.1-1.5.1-.2-.1-.4-.3-.3-.4.5-.9.9-1.3 1.4-.1-.2-.1-.3-.2-.5.5-.5.8-1.1 1.2-1.7.1-.2-.1-.3-.3-.2-.4.4-.8.9-1.1 1.4-.1-.1-.1-.2-.2-.4.5-.5.9-1.1 1.2-1.6.1-.2-.2-.4-.3-.2-.4.4-.9.8-1.3 1.3-.1-.1-.2-.2-.3-.4 0-.1.1-.1.1-.2l.9-1.2c.1-.2-.1-.3-.2-.2-.3.3-.7.7-1 1.1l-.2.2c-.1-.1-.2-.2-.2-.3.3-.3.5-.7.7-1.1.1-.1-.1-.3-.2-.2-.2.3-.5.6-.8.9-.1-.1-.3-.2-.4-.3.2-.2.4-.4.6-.7.1-.1-.1-.3-.2-.2-.2.2-.4.5-.6.7-.1-.1-.3-.2-.4-.3.2-.2.3-.4.5-.6.1-.1-.1-.3-.2-.1-.1.2-.3.4-.4.6-.2-.1-.5-.3-.6-.4.2-.2.4-.4.5-.7.1-.3 0-.3-.3-.2-.3.2-.3.3-.7.6-.1-.1-.2-.1-.3-.2.2-.2 0-.4-.3-.3-.1 0-.1.1-.2.1-1.2-.6-2.5-1-4.1-1.4-4.1-1-7.7-.9-10.6.3-1.3.5-2.2 1.2-2.5 2.2-.4 1-.1 2.2.7 3.5 1.9 3 5.3 5.1 9.4 5.9 1.6.3 3.2.4 5.1.3 1.8-.1 3.8-.4 6-.9.2 0 .3-.2.4-.3.1.2.2.3.4.4h.2c0 .2.2.3.3.2.3-.2.6-.6.8-1l.9-1.2s-.2-.1-.3 0zm-2.3 1.3c-.1-.2-.3-.4-.6-.4h-.1c-4.2.9-7.6 1.1-10.6.6-3.8-.7-6.9-2.7-8.7-5.4-.4-.7-.9-1.7-.6-2.5.2-.6.8-1.1 1.9-1.5 2.7-1.1 6-1.1 9.9-.2 3 .7 5.1 1.7 6.6 3.2 1.9 1.7 2.7 4.1 2.2 6.2zm-19 0c-1.1-1.2-2.2-2.5-3.1-3.8-.1-.1-.3 0-.2.1 1.4 2.7 3.8 5.4 6.6 6.8.1.1.2-.1.1-.2-1.1-.9-2.3-1.8-3.4-2.9z" fill="#000000" stroke-width="none" opacity="1"></path></g></g></g><g id="svga-group-eyes-right-move" transform="matrix(1,0,0,1,0,0)"><g id="svga-group-eyes-right"><g id="svga-group-eyesback-right"></g><g id="svga-group-eyesiriswrapper-right"><g id="svga-group-eyesiriscontrol-right" transform="matrix(1,0,0,1,0,0)"><g id="svga-group-eyesiris-right"><path id="SvgjsPath3791" d="M125.6 85.1c-1.1-2.1-3.5-2.9-5.7-2.2-2.4.8-4.2 3.3-3.3 5.9.5 1.4 1.6 2.6 3.1 2.9.5.1 1 .1 1.6.1.6.1 1.2 0 1.8-.2 2.5-.9 3.7-4 2.5-6.5z" fill="#ffffff" stroke-width="none" opacity="1"></path><path id="SvgjsPath3792" d="M123.8 86.2c0-.1 0-.1-.1-.2-.6-1.2-2.2-1.7-3.4-1.1.3.2.5.6.6.8.2.4.6 1.1.1 1.3-.4.2-1.1 0-1.4-.2-.2-.1-.4-.3-.5-.5 0 .1-.1.1-.1.2-.1.2-.1.5-.1.7-.2.7 0 1.5.6 2.1.3.2.6.4.9.4.6.3 1.3.4 2 .1-.1-.1-.2-.3-.2-.4 0-.3.2-.6.5-.7.3-.1.6 0 .8.2.3-.3.5-.8.6-1.2.1-.5 0-1.1-.3-1.5zm-2.2 5.8h-.4c-.5 0-1.1 0-1.6-.1-1.4-.3-2.7-1.5-3.2-3-.9-2.7 1-5.2 3.4-6.1 2.3-.8 4.8.1 5.9 2.2.6 1.2.7 2.7.2 4-.5 1.3-1.6 2.3-2.9 2.8-.4.1-.9.2-1.4.2zm-.4-.3c.6.1 1.2 0 1.8-.2 1.2-.4 2.2-1.4 2.7-2.6.5-1.2.4-2.6-.2-3.7-1-1.9-3.4-2.8-5.5-2.1-2.3.8-4.1 3.2-3.2 5.7.5 1.4 1.7 2.6 3 2.8.3.1.8.1 1.4.1z" fill="#000000" stroke-width="none" opacity="1"></path></g></g></g><g id="svga-group-eyesfront-right"><path id="SvgjsPath3724" d="M121 72.1c-8.2 0-14.8 6.6-14.8 14.8s6.6 14.8 14.8 14.8 14.8-6.6 14.8-14.8c0-8.1-6.6-14.8-14.8-14.8zm5.6 19.4s-3.8 2.2-9.1 2.2c-2 0-6.9-.5-6.9-.5s-.6-4.4 1.9-7.1 10.5-5.9 17-3.7c6.7 2.3-2.9 9.1-2.9 9.1z" fill="#ffffff" stroke-width="none" opacity="1"></path><path id="SvgjsPath3727" d="M133.1 83.2c-.3.2-.6.5-.8.7v-.1c-.1-.2-.2-.3-.3-.5.3-.3.6-.7.8-.9.2-.2-.1-.6-.3-.3-.2.3-.5.5-.8.8-.1-.1-.3-.3-.5-.4.2-.2.5-.4.7-.7.2-.2 0-.5-.2-.4-.3.2-.6.4-1 .7-.2-.1-.4-.2-.7-.3.1-.1.3-.3.5-.4.2-.1 0-.5-.2-.3-.2.1-.5.3-.8.5-.2-.1-.3-.1-.5-.1.2-.2.4-.4.6-.7.2-.2-.1-.5-.3-.3-.3.2-.6.4-.9.7l-.2.2c-.2 0-.3-.1-.5-.1.3-.2.5-.5.8-.7.2-.2-.1-.4-.2-.2-.3.3-.8.5-1.1.9-.3 0-.6-.1-1-.1l.4-.4c.1-.2-.1-.4-.3-.3-.3.2-.6.4-.8.7-2 0-4.2.3-6.5.9-3.1.9-5.3 2.1-6.9 3.8-2.1 2.2-2.9 5.2-2.1 7.7.1.3.4.5.7.4.2-.1.3-.2.4-.4.1.1.2.2.4.3 2.2.4 4.2.6 6.1.6 1.8 0 3.5-.2 5-.6 3.6-.8 6.6-2.8 8.4-5.3h.1c.5-.3.9-.9 1.3-1.4.1-.2-.1-.3-.2-.2-.2.2-.4.5-.6.7 0-.1.1-.1.1-.2.1-.2.2-.3.2-.5.3-.2.5-.5.7-.8.1-.1-.1-.3-.2-.2-.1.1-.2.1-.2.2.1-.2.1-.5.2-.7.2-.2.5-.3.7-.5.1-.1-.1-.3-.2-.2-.2.1-.3.3-.5.4 0-.3 0-.6-.1-.9.3-.3.6-.6.9-.8.3-.3.1-.4-.1-.3zm-2.3 3.6c-1.6 2.8-4.7 4.9-8.4 5.8-3 .7-6.3.7-10.6 0h-.1c-.2 0-.5.2-.6.4-.6-2 .1-4.5 1.8-6.3 1.5-1.5 3.5-2.6 6.4-3.5 3.6-1.1 6.8-1.2 9.5-.4.6.1 1.5.6 1.5.6.4.3.7.6.9.9.4.7 0 1.7-.4 2.5zm-17.7 9.5c-.7-.5-1.4-1-1.9-1.6-.2-.2-.4.1-.3.2 1 1.3 2.5 2.7 4.1 2.9.3 0 .5-.3.2-.5-.7-.3-1.4-.6-2.1-1z" fill="#000000" stroke-width="none" opacity="1"></path></g></g></g><g id="svga-group-facehighlight-single"></g><g id="svga-group-eyebrows-left-move" transform="matrix(1,0,0,1,0,0)"><g id="svga-group-eyebrows-left-rotate" transform="matrix(1,1.7453292519943295e-9,-1.7453292519943295e-9,1,1.2627384649022133e-7,-1.3469578163949336e-7)"><g id="svga-group-eyebrows-left"><path id="SvgjsPath3646" d="M70.6 67.28s-7.13 5.85-7.29 6.25c-.16.4 6.09-1.68 8.42-1.76s16.03 5.77 16.99 5.93c.96.16 2.4-4.01 2.4-4.49s-17.96-7.7-20.52-5.93z" fill="#ffffff" stroke-width="none" opacity="1"></path><path id="SvgjsPath3647" d="m62.73 73.63.21.26c.29.33.55.27 3.24-.44 1.83-.48 4.34-1.14 5.56-1.19 1.49-.07 8.55 2.73 12.77 4.38 2.54 1 3.78 1.48 4.13 1.54.05.01.09.01.14.01.23 0 .46-.1.69-.29 1.03-.87 2.15-4.11 2.15-4.7 0-.37-.34-.54-.69-.73-1.74-.92-17.79-7.54-20.61-5.61l-.03.03c-7.23 5.93-7.38 6.31-7.44 6.45l-.12.29zm5.62-1.76-1.91-.48c.47-.39.96-.81 1.46-1.23l1.88 1.39c-.45.09-.94.2-1.43.32zm5.11-4.23.13 3.98c-.39-.11-.73-.19-1.04-.25l-1.48-3.77c.41-.14 1.19-.14 2.39.04zm.81 4.17-.14-4.06c.56.11 1.2.24 1.92.42l-1.08 3.86c-.25-.08-.48-.15-.7-.22zm1.32.43 1.09-3.9c.54.14 1.12.31 1.74.49l-2.22 3.61c-.2-.06-.41-.13-.61-.2zm1.26.44 2.24-3.64c.29.09.58.18.89.28l-1.7 3.88c-.5-.19-.97-.36-1.43-.52zm4.36-2.96c.31.1.61.21.92.31l-2.26 3.75c-.33-.12-.65-.24-.97-.36l1.71-3.9c.2.07.39.13.6.2zm-.72 4.3 2.27-3.76c.41.15.82.29 1.22.44l-1.82 3.97c-.56-.22-1.12-.44-1.67-.65zm5.43-2.59c-1.37 2.27-1.97 3.33-2.23 3.83-.31-.12-.61-.24-.91-.36l1.83-3.98c.45.18.89.34 1.31.51zm.32 4.83 1.71-4.02c.59.25 1.11.47 1.54.66l-2.2 3.77c-.32-.12-.67-.26-1.05-.41zm1.68.65 2.17-3.73c.2.1.37.18.48.25-.22.9-1.27 3.52-1.82 3.78-.12-.04-.42-.15-.83-.3zm-3.61-1.41c.37-.69 1.31-2.29 2.24-3.83.27.11.53.21.79.32l-1.72 4.03-.75-.3a9.31 9.31 0 0 1-.56-.22zM71.7 71.27c-.29.01-.64.05-1.02.11l-2.26-1.66c.73-.61 1.45-1.2 2.09-1.73l1.29 3.29c-.02-.01-.07-.01-.1-.01zm-6.88 1.51c.29-.25.63-.55 1-.86l1.17.29c-.36.09-.72.19-1.07.28-.36.09-.75.19-1.1.29z" fill="#000000" stroke-width="none" opacity="1"></path></g></g></g><g id="svga-group-eyebrows-right-move" transform="matrix(1,0,0,1,0,0)"><g id="svga-group-eyebrows-right-rotate" transform="matrix(1,1.7453292519943295e-9,-1.7453292519943295e-9,1,1.2627384649022133e-7,-2.1438752639824088e-7)"><g id="svga-group-eyebrows-right"><path id="SvgjsPath3648" d="M129.4 67.28s7.13 5.85 7.29 6.25-6.09-1.68-8.42-1.76c-2.32-.08-16.03 5.77-16.99 5.93-.96.16-2.4-4.01-2.4-4.49s17.96-7.7 20.52-5.93z" fill="#ffffff" stroke-width="none" opacity="1"></path><path id="SvgjsPath3649" d="M137.16 73.34c-.06-.14-.21-.52-7.44-6.45l-.03-.03c-2.81-1.93-18.86 4.69-20.61 5.61-.36.19-.69.36-.69.73 0 .59 1.12 3.83 2.15 4.7.23.19.46.29.69.29.05 0 .09 0 .14-.01.34-.06 1.58-.54 4.13-1.54 4.22-1.66 11.28-4.45 12.77-4.38 1.22.04 3.73.7 5.56 1.19 2.69.71 2.95.77 3.24.44l.21-.26-.12-.29zm-6.94-1.8 1.88-1.39c.5.42 1 .83 1.46 1.23l-1.91.48-1.43-.32zm-1.3-3.94-1.48 3.77c-.3.06-.65.14-1.04.25l.13-3.98c1.21-.18 1.99-.18 2.39-.04zm-3.88 4.43-1.08-3.86c.72-.18 1.35-.32 1.92-.42l-.14 4.06c-.23.07-.46.14-.7.22zm-1.25.42-2.22-3.61c.62-.19 1.2-.35 1.74-.49l1.09 3.9c-.19.06-.4.13-.61.2zm-2.07.74-1.7-3.88c.31-.1.6-.19.89-.28l2.24 3.64c-.46.17-.93.34-1.43.52zm-2.33-3.67 1.71 3.9c-.32.12-.64.24-.97.36l-2.26-3.75c.3-.11.61-.21.92-.31.21-.07.4-.13.6-.2zm-1.55 5.15-1.82-3.97c.4-.15.8-.29 1.22-.44l2.27 3.76c-.55.21-1.11.43-1.67.65zm-2.45-3.74 1.83 3.98c-.3.12-.6.24-.91.36-.26-.5-.86-1.56-2.23-3.83.42-.18.86-.34 1.31-.51zm-2.69 5.74-2.2-3.77c.43-.19.94-.41 1.54-.66l1.71 4.02c-.37.15-.72.29-1.05.41zm-1.46.53c-.55-.26-1.6-2.87-1.82-3.78.12-.07.28-.15.48-.25l2.17 3.73c-.4.16-.7.27-.83.3zm3.89-1.48c-.25.1-.51.2-.75.3l-1.72-4.03c.25-.1.51-.21.79-.32.93 1.54 1.88 3.14 2.24 3.83-.18.08-.37.15-.56.22zm13.06-4.45 1.29-3.29c.65.53 1.37 1.13 2.09 1.73l-2.26 1.66c-.38-.06-.73-.1-1.02-.11-.02.01-.07.01-.1.01zm5.89 1.22c-.34-.09-.7-.18-1.07-.28l1.17-.29 1 .86c-.35-.1-.74-.2-1.1-.29z" fill="#000000" stroke-width="none" opacity="1"></path></g></g></g><g id="svga-group-beardwrap"><g id="svga-group-beard-single-move" transform="matrix(1,0,0,1,0,0)"><g id="svga-group-beard-single"></g></g></g><g id="svga-group-mustache-single-move" transform="matrix(1,0,0,1,0,0)"><g id="svga-group-mustache-single"></g></g><g id="svga-group-nose-single-move" transform="matrix(1,0,0,1,0,0)"><g id="svga-group-nose-single"><path id="SvgjsPath4439" d="M96.13 77.79s-5.71 19.9-6.24 24.21c-.29 2.31 5.38 2.5 5.38 2.5s-.29 6.15.48 7.11 2.5.48 3.84-.86 3.65-6.05 3.65-6.05 2.02.19 3.55-.58 2.31-2.59.86-5c-1.44-2.4-6.24-20.65-7.69-21.52s-2.19-.87-3.83.19z" fill="#ffffff" stroke-width="none" opacity="1"></path><path id="SvgjsPath4440" d="M102.52 104.6c-.71 1.64-1.4 3.33-2.54 4.72-.67.81-1.89 1.99-3.06 1.81-1.16-.18-.82-1.68-.84-2.56-.09-4.17-.11-8.35-.05-12.52.12-8.22.54-16.43 1.24-24.62.07-.87-1.29-.87-1.36 0-1.13 13.3-1.5 26.66-1.11 40 .01.22.12.49.34.59 4.5 2.05 7.15-3.45 8.57-6.74.33-.79-.84-1.48-1.19-.68z" fill="#000000" stroke-width="none" opacity="1"></path><path id="SvgjsPath4441" d="M105.15 103.66c.41-.94 1.45-1.47 2.35-.75.68.54 1.65-.41.96-.96-1.51-1.22-3.68-.81-4.49 1.02-.34.79.83 1.49 1.18.69z" fill="#000000" stroke-width="none" opacity="1"></path><path id="SvgjsPath4442" d="M91.39 103.02c.68-.26 1.37.02 1.68.68.37.8 1.54.1 1.18-.69-.54-1.17-2.01-1.77-3.21-1.31-.82.32-.47 1.63.35 1.32z" fill="#000000" stroke-width="none" opacity="1"></path></g></g><g id="svga-group-hair-front"><path id="SvgjsPath5394" d="M61.8 42.3s5-2.4 11.2-2.4 34.7 2.1 42.1 1.8 14.4-2.6 16.8-1.5 6.5 3.5 6.5 3.5 2.1-21.8-.9-22.6-23.5-3.5-23.5-3.5l-1.8 3.2-2.4-3.2s-9.7-.9-10.6 0-12.4 1.5-14.7 1.2c-2.4-.3-7.6 0-7.6 0l-.9 2.6-3-2.3-2.4 2.6-3.2-1.2-7.6.6s0 16.5 2 21.2z" fill="#ffffff" stroke-width="none" opacity="1"></path><path id="SvgjsPath5395" d="M137.7 20.2c-3-.9-22.8-3.5-23.7-3.6l-.7-.1L112 19l-1.7-2.3h-.5c-9.5-.9-10.9-.1-11.3.2-1.4.6-11.5 1.3-13.9 1s-7.6 0-7.8 0h-.7l-.6 1.9-2.6-2-2.5 2.8-2.8-1-8.8.7v.9c0 .7 0 16.7 2.1 21.6l.4.9.9-.4S67.1 41 72.9 41c2.5 0 8.7.3 15.9.7 10.2.6 21.9 1.2 26.2 1 3.2-.1 6.4-.6 9.2-1.1 3.1-.5 6.1-1 7.1-.5 2.3 1.1 6.4 3.5 6.4 3.5l1.3.8.1-1.5c1.1-10.3 1.7-22.8-1.4-23.7zM68.4 39.4c-1.4-5.2-2.1-10.5-2.2-15.9 0-.8-1.3-.8-1.3 0 .1 5.5.8 10.8 2.2 16.1-2.1.4-3.8 1-4.8 1.4-1.4-4.6-1.6-15.6-1.6-18.9l6.5-.5 3.7 1.3 2.2-2.4 3.3 2.7 1.1-3.4c1 0 3-.1 4.7-.1-.8 6.6-.7 13.1.3 19.7-4.3-.3-7.8-.4-9.5-.4-1.6 0-3.2.1-4.6.4zm18.6.2c-.5-6.2-.6-12.4-.4-18.7 0-.8-1.2-.8-1.3 0-.3 6.2-.1 12.4.3 18.6-.7 0-1.4-.1-2-.1-1.1-6.6-1.2-13.1-.3-19.7.3 0 .6 0 .9.1 1.7.2 13.6-.1 15.4-1.4.9-.3 5.4-.2 9.4.2l3 4.1 2.2-4c.1 0 .3 0 .4.1v.1c-.4 7.4-1.2 14.7-2.5 21.9-4.9-.1-13-.5-20.7-.9-.3-5.5-.3-11 .2-16.5.1-.8-1.2-.8-1.3 0-.3 5.4-.3 10.9 0 16.4-.4 0-.9 0-1.3-.1-.7 0-1.3-.1-2-.1zm42.9-.7c-1.6 0-3.6.3-6 .7-2.7.4-5.8.9-8.9 1.1h-1.5c1.3-7.2 2.1-14.5 2.5-21.8 1.9.2 4.1.5 6.3.8-.1.1-.1.2-.1.3-.5 5.3-.9 10.6-1.4 15.9-.1.8 1.2.8 1.3 0 .5-5.3.9-10.6 1.4-15.9v-.2c5.3.7 10.5 1.5 12.8 2 .6 6.4.1 12.6-1.5 18.8-.6-.3-1.1-.6-1.7-.9 1.6-5.5 2.6-11.1 3.2-16.8.1-.8-1.2-.8-1.3 0-.5 5.5-1.6 10.9-3.1 16.2-.6-.1-1.2-.2-2-.2zm7.5 3.3c-.5-.3-1-.6-1.6-.9 1.6-5.9 2.1-11.8 1.7-17.9.7 3.2.6 11.2-.1 18.8zm-64-17c0-.8-1.2-.8-1.3 0-.1 4.3.1 8.5.7 12.8.1.8 1.3.5 1.2-.3-.5-4.1-.7-8.3-.6-12.5zM102 38.6c.8-5.1 1.1-10.2.7-15.4-.1-.8-1.3-.8-1.3 0 .3 5.1.1 10.1-.7 15.1-.1.7 1.1 1.1 1.3.3zm3-1.6c-.1.8 1.1 1.1 1.2.3.8-4.8.8-9.6-.1-14.4-.2-.8-1.4-.5-1.2.3.9 4.7 1 9.2.1 13.8zm21-13.8c-.4 4.7-.9 9.5-1.3 14.2-.1.8 1.2.8 1.3 0 .4-4.7.9-9.5 1.3-14.2 0-.8-1.2-.8-1.3 0z" fill="#000000" stroke-width="none" opacity="1"></path></g><g id="svga-group-glasses-single-move" transform="matrix(1,0,0,1,0,0)"><g id="svga-group-glasses-single"></g></g></g></g></g><rect id="svga-credit-rect" width="200" height="15" x="0" y="185" fill="#ecf0f1" opacity="0.5" style="display: none;"></rect><text id="svga-credit-text" font-family="Avenir Next, Roboto, Helvetica, Arial, sans-serif" font-size="10px" text-anchor="start" font-weight="400" size="10px" anchor="start" weight="400" fill="#333333" x="34.02062225341797" y="182.60824704170227" style="display: none;"><tspan id="SvgjsTspan3640" dy="13" x="34.02062225341797">Created on AvatarMaker.com</tspan></text></g><defs id="SvgjsDefs3587"></defs></svg>